<?xml version="1.0" encoding="UTF-8" standalone="no"?>
<svg
   xmlns:dc="http://purl.org/dc/elements/1.1/"
   xmlns:cc="http://creativecommons.org/ns#"
   xmlns:rdf="http://www.w3.org/1999/02/22-rdf-syntax-ns#"
   xmlns:svg="http://www.w3.org/2000/svg"
   xmlns="http://www.w3.org/2000/svg"
   xmlns:sodipodi="http://sodipodi.sourceforge.net/DTD/sodipodi-0.dtd"
   xmlns:inkscape="http://www.inkscape.org/namespaces/inkscape"
   width="16"
   height="16"
   version="1.1"
   id="svg10"
   sodipodi:docname="menu-math-font-styles-2-symbolic.svg"
   inkscape:version="0.92.4 (5da689c313, 2019-01-14)">
  <metadata
     id="metadata16">
    <rdf:RDF>
      <cc:Work
         rdf:about="">
        <dc:format>image/svg+xml</dc:format>
        <dc:type
           rdf:resource="http://purl.org/dc/dcmitype/StillImage" />
        <dc:title />
      </cc:Work>
    </rdf:RDF>
  </metadata>
  <defs
     id="defs14" />
  <sodipodi:namedview
     pagecolor="#ffffff"
     bordercolor="#666666"
     borderopacity="1"
     objecttolerance="10"
     gridtolerance="10"
     guidetolerance="10"
     inkscape:pageopacity="0"
     inkscape:pageshadow="2"
     inkscape:window-width="840"
     inkscape:window-height="704"
     id="namedview12"
     showgrid="false"
     inkscape:zoom="25.897786"
     inkscape:cx="11.306708"
     inkscape:cy="8.7065028"
     inkscape:window-x="526"
     inkscape:window-y="27"
     inkscape:window-maximized="0"
     inkscape:current-layer="use18" />
  <g
     color="#000"
     font-weight="400"
     font-family="sans-serif"
     white-space="normal"
     fill="#474747"
     id="g8">
    <g
       id="page1"
       transform="matrix(1.8864635,0,0,1.8864635,-106.46308,-108.03828)">
      <g
         id="use18"
         style="fill:#000000;fill-opacity:1"
         transform="matrix(0.54171543,0,0,0.54171543,56.727459,64.328965)">
        <g
           transform="matrix(1.3047254,0,0,1.3047254,-198.15051,-200.14479)"
           style="fill:#000000;fill-opacity:1"
           id="g265">
          <g
             id="use263"
             transform="matrix(0.97854407,0,0,0.97854407,152.14163,153.61475)">
            <path
               inkscape:connector-curvature="0"
               id="path541"
               d="m 2.640625,-1.609375 c -0.453125,0.796875 -0.84375,1.125 -1.5625,1.1875 -0.15625,0.015625 -0.28125,0.03125 -0.28125,0.28125 C 0.796875,0 0.953125,0 0.96875,0 1.3125,0 1.703125,-0.03125 2.0625,-0.03125 2.453125,-0.03125 2.875,0 3.234375,0 3.34375,0 3.5,0 3.5,-0.265625 3.5,-0.40625 3.390625,-0.421875 3.296875,-0.421875 2.953125,-0.4375 2.75,-0.609375 2.75,-0.890625 2.75,-1.09375 2.875,-1.28125 3,-1.5 L 4.046875,-3.359375 H 7.375 l 0.15625,2.3125 c 0.015625,0.234375 0.046875,0.609375 -0.84375,0.625 -0.203125,0 -0.328125,0 -0.328125,0.28125 C 6.359375,0 6.5,0 6.5625,0 7.03125,0 7.546875,-0.03125 8.03125,-0.03125 8.5,-0.03125 9,0 9.453125,0 c 0.078125,0 0.25,0 0.25,-0.265625 0,-0.15625 -0.09375,-0.15625 -0.28125,-0.15625 -0.703125,0 -0.765625,-0.09375 -0.796875,-0.46875 l -0.640625,-9 c -0.015625,-0.3125 -0.03125,-0.34375 -0.21875,-0.34375 -0.203125,0 -0.25,0.07813 -0.34375,0.25 z m 1.640625,-2.15625 2.734375,-4.78125 0.328125,4.78125 z m 0,0"
               style="stroke:none" />
          </g>
        </g>
      </g>
    </g>
  </g>
</svg>
