<?xml version="1.0" encoding="UTF-8" standalone="no"?>
<svg
   xmlns:dc="http://purl.org/dc/elements/1.1/"
   xmlns:cc="http://creativecommons.org/ns#"
   xmlns:rdf="http://www.w3.org/1999/02/22-rdf-syntax-ns#"
   xmlns:svg="http://www.w3.org/2000/svg"
   xmlns="http://www.w3.org/2000/svg"
   xmlns:sodipodi="http://sodipodi.sourceforge.net/DTD/sodipodi-0.dtd"
   xmlns:inkscape="http://www.inkscape.org/namespaces/inkscape"
   width="16"
   height="16"
   version="1.1"
   id="svg10"
   sodipodi:docname="menu-math-font-styles-3-symbolic.svg"
   inkscape:version="0.92.4 (5da689c313, 2019-01-14)">
  <metadata
     id="metadata16">
    <rdf:RDF>
      <cc:Work
         rdf:about="">
        <dc:format>image/svg+xml</dc:format>
        <dc:type
           rdf:resource="http://purl.org/dc/dcmitype/StillImage" />
        <dc:title></dc:title>
      </cc:Work>
    </rdf:RDF>
  </metadata>
  <defs
     id="defs14" />
  <sodipodi:namedview
     pagecolor="#ffffff"
     bordercolor="#666666"
     borderopacity="1"
     objecttolerance="10"
     gridtolerance="10"
     guidetolerance="10"
     inkscape:pageopacity="0"
     inkscape:pageshadow="2"
     inkscape:window-width="840"
     inkscape:window-height="704"
     id="namedview12"
     showgrid="false"
     inkscape:zoom="25.897786"
     inkscape:cx="11.306708"
     inkscape:cy="9.0154095"
     inkscape:window-x="526"
     inkscape:window-y="27"
     inkscape:window-maximized="0"
     inkscape:current-layer="use18" />
  <g
     color="#000"
     font-weight="400"
     font-family="sans-serif"
     white-space="normal"
     fill="#474747"
     id="g8">
    <g
       id="page1"
       transform="matrix(1.8864635,0,0,1.8864635,-106.46308,-108.03828)">
      <g
         id="use18"
         style="fill:#000000;fill-opacity:1"
         transform="matrix(0.54171543,0,0,0.54171543,56.727459,64.328965)">
        <g
           transform="matrix(1.3047254,0,0,1.3047254,-226.76349,-200.22035)"
           style="fill:#000000;fill-opacity:1"
           id="g269">
          <g
             id="use267"
             transform="matrix(0.97854407,0,0,0.97854407,174.27462,153.61475)">
            <path
               inkscape:connector-curvature="0"
               id="path574"
               d="m 5.546875,-9.984375 c -0.046875,-0.171875 -0.078125,-0.25 -0.28125,-0.25 -0.203125,0 -0.234375,0.03125 -0.296875,0.265625 l -3,8.578125 C 1.765625,-0.796875 1.359375,-0.4375 0.4375,-0.421875 V 0 c 0.875,-0.03125 0.90625,-0.03125 1.390625,-0.03125 0.390625,0 1.078125,0 1.453125,0.03125 V -0.421875 C 2.6875,-0.4375 2.328125,-0.734375 2.328125,-1.140625 c 0,-0.078125 0,-0.109375 0.0625,-0.296875 L 3.0625,-3.34375 h 3.609375 l 0.78125,2.25 c 0.078125,0.171875 0.078125,0.203125 0.078125,0.25 0,0.421875 -0.734375,0.421875 -1.09375,0.421875 V 0 c 0.328125,-0.03125 1.46875,-0.03125 1.875,-0.03125 0.390625,0 1.421875,0 1.75,0.03125 v -0.421875 c -0.921875,0 -1.1875,0 -1.390625,-0.578125 z m -0.6875,1.453125 1.671875,4.765625 H 3.203125 Z m 0,0"
               style="stroke:none" />
          </g>
        </g>
      </g>
    </g>
  </g>
</svg>
