<?xml version="1.0" encoding="UTF-8" standalone="no"?>
<svg
   xmlns:dc="http://purl.org/dc/elements/1.1/"
   xmlns:cc="http://creativecommons.org/ns#"
   xmlns:rdf="http://www.w3.org/1999/02/22-rdf-syntax-ns#"
   xmlns:svg="http://www.w3.org/2000/svg"
   xmlns="http://www.w3.org/2000/svg"
   xmlns:sodipodi="http://sodipodi.sourceforge.net/DTD/sodipodi-0.dtd"
   xmlns:inkscape="http://www.inkscape.org/namespaces/inkscape"
   width="16"
   height="16"
   version="1.1"
   id="svg10"
   sodipodi:docname="menu-math-font-styles-6-symbolic.svg"
   inkscape:version="0.92.4 (5da689c313, 2019-01-14)">
  <metadata
     id="metadata16">
    <rdf:RDF>
      <cc:Work
         rdf:about="">
        <dc:format>image/svg+xml</dc:format>
        <dc:type
           rdf:resource="http://purl.org/dc/dcmitype/StillImage" />
        <dc:title />
      </cc:Work>
    </rdf:RDF>
  </metadata>
  <defs
     id="defs14" />
  <sodipodi:namedview
     pagecolor="#ffffff"
     bordercolor="#666666"
     borderopacity="1"
     objecttolerance="10"
     gridtolerance="10"
     guidetolerance="10"
     inkscape:pageopacity="0"
     inkscape:pageshadow="2"
     inkscape:window-width="840"
     inkscape:window-height="704"
     id="namedview12"
     showgrid="false"
     inkscape:zoom="25.897786"
     inkscape:cx="11.306708"
     inkscape:cy="8.7065028"
     inkscape:window-x="526"
     inkscape:window-y="27"
     inkscape:window-maximized="0"
     inkscape:current-layer="use18" />
  <g
     color="#000"
     font-weight="400"
     font-family="sans-serif"
     white-space="normal"
     fill="#474747"
     id="g8">
    <g
       id="page1"
       transform="matrix(1.8864635,0,0,1.8864635,-106.46308,-108.03828)">
      <g
         id="use18"
         style="fill:#000000;fill-opacity:1"
         transform="matrix(0.54171543,0,0,0.54171543,56.727459,64.328965)">
        <g
           transform="matrix(1.2489566,0,0,1.2489566,-295.53552,-192.21936)"
           style="fill:#000000;fill-opacity:1"
           id="g281">
          <g
             id="use279"
             transform="matrix(0.97854407,0,0,0.97854407,236.58762,153.61475)">
            <path
               inkscape:connector-curvature="0"
               id="path673"
               d="m 8.53125,-2.359375 c 0.078125,0.890625 0.25,1.5625 0.3125,1.828125 0.171875,0.640625 0.234375,0.96875 0.859375,0.96875 0.640625,0 1.75,-0.65625 1.75,-0.9375 0,-0.078125 -0.0625,-0.109375 -0.140625,-0.109375 -0.1875,0 -0.484375,0.171875 -0.53125,0.1875 -0.09375,0.0625 -0.125,0.0625 -0.15625,0.0625 -0.390625,0 -0.484375,-0.390625 -0.65625,-1.25 C 9.875,-2.078125 9.734375,-2.65625 9.625,-4.625 9.53125,-6.078125 9.46875,-7.546875 9.46875,-9.015625 c 0,-0.34375 0.015625,-0.703125 0.015625,-1.046875 0,-0.234375 0,-0.296875 -0.15625,-0.296875 -0.203125,0 -0.796875,0.25 -1.046875,0.640625 L 8.171875,-9.5625 c -1.125,2.421875 -2.1875,4.15625 -2.9375,5.3125 -0.84375,1.3125 -2.34375,3.640625 -3.109375,3.640625 -0.53125,0 -0.984375,-0.34375 -1.109375,-0.859375 C 1,-1.484375 0.96875,-1.578125 0.921875,-1.578125 c -0.21875,0 -0.53125,0.6875 -0.53125,1.09375 0,0.578125 0.609375,1.203125 1.28125,1.203125 1,0 2.640625,-2.578125 2.96875,-3.078125 z M 8.25,-8.59375 v 0.828125 c 0,0.84375 0.03125,1.671875 0.0625,2.5 0.015625,0.28125 0.078125,1.359375 0.15625,2.109375 h -2.625 c -0.234375,0 -0.453125,0 -0.828125,0.234375 C 6.03125,-4.46875 6.859375,-5.96875 6.9375,-6.125 7.65625,-7.40625 8.046875,-8.234375 8.234375,-8.59375 Z m 0,0"
               style="stroke:none" />
          </g>
        </g>
      </g>
    </g>
  </g>
</svg>
