<?xml version="1.0" encoding="UTF-8" standalone="no"?>
<svg
   xmlns:dc="http://purl.org/dc/elements/1.1/"
   xmlns:cc="http://creativecommons.org/ns#"
   xmlns:rdf="http://www.w3.org/1999/02/22-rdf-syntax-ns#"
   xmlns:svg="http://www.w3.org/2000/svg"
   xmlns="http://www.w3.org/2000/svg"
   xmlns:sodipodi="http://sodipodi.sourceforge.net/DTD/sodipodi-0.dtd"
   xmlns:inkscape="http://www.inkscape.org/namespaces/inkscape"
   width="16"
   height="16"
   version="1.1"
   id="svg10"
   sodipodi:docname="menu-math-font-styles-5-symbolic.svg"
   inkscape:version="0.92.4 (5da689c313, 2019-01-14)">
  <metadata
     id="metadata16">
    <rdf:RDF>
      <cc:Work
         rdf:about="">
        <dc:format>image/svg+xml</dc:format>
        <dc:type
           rdf:resource="http://purl.org/dc/dcmitype/StillImage" />
        <dc:title></dc:title>
      </cc:Work>
    </rdf:RDF>
  </metadata>
  <defs
     id="defs14" />
  <sodipodi:namedview
     pagecolor="#ffffff"
     bordercolor="#666666"
     borderopacity="1"
     objecttolerance="10"
     gridtolerance="10"
     guidetolerance="10"
     inkscape:pageopacity="0"
     inkscape:pageshadow="2"
     inkscape:window-width="840"
     inkscape:window-height="704"
     id="namedview12"
     showgrid="false"
     inkscape:zoom="25.897786"
     inkscape:cx="11.306708"
     inkscape:cy="9.0154095"
     inkscape:window-x="526"
     inkscape:window-y="27"
     inkscape:window-maximized="0"
     inkscape:current-layer="use18" />
  <g
     color="#000"
     font-weight="400"
     font-family="sans-serif"
     white-space="normal"
     fill="#474747"
     id="g8">
    <g
       id="page1"
       transform="matrix(1.8864635,0,0,1.8864635,-106.46308,-108.03828)">
      <g
         id="use18"
         style="fill:#000000;fill-opacity:1"
         transform="matrix(0.54171543,0,0,0.54171543,56.727459,64.328965)">
        <g
           transform="matrix(1.3047254,0,0,1.3047254,-281.20183,-200.31037)"
           style="fill:#000000;fill-opacity:1"
           id="g277">
          <g
             id="use275"
             transform="matrix(0.97854407,0,0,0.97854407,217.49862,153.61475)">
            <path
               inkscape:connector-curvature="0"
               id="path640"
               d="M 4.421875,-8.453125 C 4.296875,-8.96875 4.015625,-8.96875 3.6875,-8.96875 c -0.453125,0 -0.625,0.0625 -0.71875,0.515625 l -1.78125,7.625 c -0.46875,0 -0.796875,0 -0.796875,0.40625 C 0.390625,0 0.78125,0 0.96875,0 h 1.390625 c 0.1875,0 0.578125,0 0.578125,-0.421875 0,-0.40625 -0.34375,-0.40625 -0.78125,-0.40625 l 0.375,-1.609375 h 2.3125 l 0.375,1.609375 c -0.4375,0 -0.78125,0 -0.78125,0.40625 C 4.4375,0 4.8125,0 5.015625,0 h 1.375 c 0.203125,0 0.59375,0 0.59375,-0.421875 0,-0.40625 -0.328125,-0.40625 -0.796875,-0.40625 z m -1.703125,5.1875 c 0.09375,-0.4375 0.875,-3.8125 0.953125,-4.515625 H 3.6875 c 0.046875,0.34375 0.25,1.21875 0.25,1.21875 l 0.71875,3.296875 z m 0,0"
               style="stroke:none" />
          </g>
        </g>
      </g>
    </g>
  </g>
</svg>
