<?xml version="1.0" encoding="UTF-8" standalone="no"?>
<svg
   xmlns:dc="http://purl.org/dc/elements/1.1/"
   xmlns:cc="http://creativecommons.org/ns#"
   xmlns:rdf="http://www.w3.org/1999/02/22-rdf-syntax-ns#"
   xmlns:svg="http://www.w3.org/2000/svg"
   xmlns="http://www.w3.org/2000/svg"
   xmlns:sodipodi="http://sodipodi.sourceforge.net/DTD/sodipodi-0.dtd"
   xmlns:inkscape="http://www.inkscape.org/namespaces/inkscape"
   width="16"
   height="16"
   version="1.1"
   id="svg10"
   sodipodi:docname="menu-math-font-styles-8-symbolic.svg"
   inkscape:version="0.92.4 (5da689c313, 2019-01-14)">
  <metadata
     id="metadata16">
    <rdf:RDF>
      <cc:Work
         rdf:about="">
        <dc:format>image/svg+xml</dc:format>
        <dc:type
           rdf:resource="http://purl.org/dc/dcmitype/StillImage" />
        <dc:title></dc:title>
      </cc:Work>
    </rdf:RDF>
  </metadata>
  <defs
     id="defs14" />
  <sodipodi:namedview
     pagecolor="#ffffff"
     bordercolor="#666666"
     borderopacity="1"
     objecttolerance="10"
     gridtolerance="10"
     guidetolerance="10"
     inkscape:pageopacity="0"
     inkscape:pageshadow="2"
     inkscape:window-width="840"
     inkscape:window-height="704"
     id="namedview12"
     showgrid="false"
     inkscape:zoom="25.897786"
     inkscape:cx="11.306708"
     inkscape:cy="9.0154095"
     inkscape:window-x="526"
     inkscape:window-y="27"
     inkscape:window-maximized="0"
     inkscape:current-layer="use18" />
  <g
     color="#000"
     font-weight="400"
     font-family="sans-serif"
     white-space="normal"
     fill="#474747"
     id="g8">
    <g
       id="page1"
       transform="matrix(1.8864635,0,0,1.8864635,-106.46308,-108.03828)">
      <g
         id="use18"
         style="fill:#000000;fill-opacity:1"
         transform="matrix(0.54171543,0,0,0.54171543,56.727459,64.328965)">
        <g
           transform="matrix(1.3047254,0,0,1.3047254,-366.31018,-199.97581)"
           style="fill:#000000;fill-opacity:1"
           id="g289">
          <g
             id="use287"
             transform="matrix(0.97854407,0,0,0.97854407,281.52761,153.61475)">
            <path
               inkscape:connector-curvature="0"
               id="path739"
               d="M 5.578125,-4.453125 C 6,-5.296875 6.25,-6.25 6.25,-7.203125 c 0,-1.34375 -1.09375,-2.375 -2.453125,-2.375 -1.125,0 -2.359375,0.8125 -2.6875,1.15625 C 0.71875,-8.03125 0.3125,-7.625 0.3125,-7.0625 c 0,0.828125 0.671875,1.234375 1.09375,1.859375 0.09375,0.109375 0.15625,0.234375 0.15625,0.375 0,0.453125 -0.46875,0.875 -0.890625,1.109375 l 0.21875,0.15625 C 1.625,-3.921875 2.53125,-4.59375 2.53125,-5.40625 2.53125,-6.21875 1.203125,-6.875 1.203125,-7.5 c 0,-0.796875 0.8125,-1.328125 1.546875,-1.328125 1.375,0 2.390625,1.171875 2.390625,2.515625 0,0.765625 -0.125,1.640625 -0.609375,2.25 -0.546875,0.734375 -1.609375,1.515625 -2.515625,2.203125 l -1.5625,1.1875 0.21875,0.15625 c 0.5,-0.328125 0.953125,-0.5625 1.46875,-0.5625 0.953125,0 1.578125,0.6875 2.03125,1.453125 L 7,-1.71875 C 7.234375,-0.984375 7.453125,-0.3125 7.890625,0.375 l 2,-1.5625 L 9.8125,-1.40625 c -0.234375,0.125 -0.625,0.34375 -0.84375,0.34375 -0.25,0 -0.578125,-0.875 -0.71875,-1.234375 C 8.203125,-2.421875 8.1875,-2.59375 8.171875,-2.75 c -0.03125,-0.84375 -0.0625,-1.671875 -0.0625,-2.53125 0,-1.390625 -0.0625,-3.34375 0.21875,-3.703125 0.078125,-0.140625 0.375,-0.40625 0.59375,-0.59375 L 8.6875,-9.71875 6.921875,-8.390625 c 0.03125,0.546875 0.0625,1.1875 0.0625,1.78125 v 4.53125 c -0.6875,0.453125 -1.828125,1.171875 -2,1.1875 L 4.3125,-1.5625 C 4,-1.875 3.65625,-2.15625 3.09375,-2.15625 Z m 0,0"
               style="stroke:none" />
          </g>
        </g>
      </g>
    </g>
  </g>
</svg>
