<?xml version="1.0" encoding="UTF-8" standalone="no"?>
<svg
   xmlns:dc="http://purl.org/dc/elements/1.1/"
   xmlns:cc="http://creativecommons.org/ns#"
   xmlns:rdf="http://www.w3.org/1999/02/22-rdf-syntax-ns#"
   xmlns:svg="http://www.w3.org/2000/svg"
   xmlns="http://www.w3.org/2000/svg"
   xmlns:sodipodi="http://sodipodi.sourceforge.net/DTD/sodipodi-0.dtd"
   xmlns:inkscape="http://www.inkscape.org/namespaces/inkscape"
   width="16"
   height="16"
   version="1.1"
   id="svg10"
   sodipodi:docname="own-math-menu-symbolic.svg"
   inkscape:version="0.92.4 (5da689c313, 2019-01-14)">
  <metadata
     id="metadata16">
    <rdf:RDF>
      <cc:Work
         rdf:about="">
        <dc:format>image/svg+xml</dc:format>
        <dc:type
           rdf:resource="http://purl.org/dc/dcmitype/StillImage" />
        <dc:title></dc:title>
      </cc:Work>
    </rdf:RDF>
  </metadata>
  <defs
     id="defs14" />
  <sodipodi:namedview
     pagecolor="#ffffff"
     bordercolor="#666666"
     borderopacity="1"
     objecttolerance="10"
     gridtolerance="10"
     guidetolerance="10"
     inkscape:pageopacity="0"
     inkscape:pageshadow="2"
     inkscape:window-width="1366"
     inkscape:window-height="704"
     id="namedview12"
     showgrid="false"
     inkscape:zoom="51.795572"
     inkscape:cx="6.2827793"
     inkscape:cy="11.510564"
     inkscape:window-x="0"
     inkscape:window-y="27"
     inkscape:window-maximized="1"
     inkscape:current-layer="use18" />
  <g
     color="#000"
     font-weight="400"
     font-family="sans-serif"
     white-space="normal"
     fill="#474747"
     id="g8">
    <g
       id="page1"
       transform="matrix(1.8864635,0,0,1.8864635,-106.46308,-108.03828)">
      <g
         id="use18"
         style="fill:#000000;fill-opacity:1"
         transform="matrix(0.54171543,0,0,0.54171543,56.727459,64.328965)">
        <path
           inkscape:connector-curvature="0"
           id="path78"
           d="m 13.703125,-10.140625 c 0,-0.546875 -0.495468,-0.911758 -0.948593,-0.911758 H 4.6139071 c -0.578125,0 -1.3951571,0.213744 -2.5357821,1.4324936 -0.640625,0.71875 -1.4375,2.1823894 -1.4375,2.3386394 0,0.140625 0.125,0.1875 0.28125,0.1875 0.171875,0 0.1875,-0.0625 0.3125,-0.21875 C 2.53125,-9.34375 3.8128786,-9.3219993 4.4375,-9.34375 l 1.0850787,-0.037785 c -0.546875,1.859375 -1.15625,4.015625 -3.1875,8.359375 -0.203125,0.39062505 -0.2325425,0.44029428 -0.203125,0.59375005 C 2.2922613,0.40783027 2.90625,0.25 3.125,0.25 c 0.71875,0 1.186369,-0.71619471 1.483244,-1.7630697 0.390625,-1.265625 0.390625,-1.3125 0.640625,-2.296875 l 1.4375,-5.609375 2.2489946,0.037785 c -0.671875,2.78125 -1.09375,4.578125 -1.09375,6.5625 C 7.8416136,-2.4596599 8.125,0.25 9.140625,0.25 c 0.53125,0 1.155775,-0.25500659 1.262647,-0.91734293 0.01991,-0.12340387 0,-0.171875 -0.171875,-0.54687497 -0.6718748,-1.71875 -0.6718748,-3.84375 -0.6718748,-4.015625 0,-0.15625 0,-1.90625 0.5156248,-4.140625 L 12.5625,-9.34375 c 0.328106,0.00352 1.140625,0 1.140625,-0.796875 z"
           style="stroke:none"
           sodipodi:nodetypes="ssscsscsccssccccssscscss" />
      </g>
    </g>
  </g>
</svg>
