<?xml version="1.0" encoding="UTF-8"?>
<svg height="128px" viewBox="0 0 128 128" width="128px" xmlns="http://www.w3.org/2000/svg" xmlns:xlink="http://www.w3.org/1999/xlink">
    <linearGradient id="a" gradientTransform="matrix(0.25 0 0 0.18617 0 69.085114)" gradientUnits="userSpaceOnUse" x1="47.999996" x2="256" y1="58.628551" y2="58.628551">
        <stop offset="0" stop-color="#54caa9"/>
        <stop offset="0.0769231" stop-color="#abead8"/>
        <stop offset="0.153846" stop-color="#4dba9c"/>
        <stop offset="1" stop-color="#4dba9c"/>
    </linearGradient>
    <linearGradient id="b" gradientTransform="matrix(0.269231 0 0 0.18617 -4.92308 69.085114)" gradientUnits="userSpaceOnUse" x1="256" x2="449.142853" y1="262.742889" y2="262.742889">
        <stop offset="0" stop-color="#515f5e"/>
        <stop offset="0.846154" stop-color="#536160"/>
        <stop offset="0.923077" stop-color="#839593"/>
        <stop offset="1" stop-color="#394d4b"/>
    </linearGradient>
    <path d="m 20 46 h 60 c 4.417969 0 8 3.582031 8 8 v 54 c 0 4.417969 -3.582031 8 -8 8 h -60 c -4.417969 0 -8 -3.582031 -8 -8 v -54 c 0 -4.417969 3.582031 -8 8 -8 z m 0 0" fill="url(#a)"/>
    <path d="m 20 46 h 60 c 4.417969 0 8 3.78125 8 8.445312 v 49.109376 c 0 4.664062 -3.582031 8.445312 -8 8.445312 h -60 c -4.417969 0 -8 -3.78125 -8 -8.445312 v -49.109376 c 0 -4.664062 3.582031 -8.445312 8 -8.445312 z m 0 0" fill="#8ff0d5"/>
    <path d="m 20 12 c -4.433594 0 -7.851562 3.769531 -8 8.445312 v 43.554688 h 88 v -43.554688 c 0 -4.679687 -3.566406 -8.445312 -8 -8.445312 z m 0 0" fill="#b3c9c3"/>
    <path d="m 64 63 v 53 h 44 c 4.433594 0 8 -3.566406 8 -8 v -46 c 0 -4.433594 -3.570312 -8.101562 -8 -8 z m 0 0" fill="url(#b)"/>
    <path d="m 64 62.773438 v 49.226562 h 44 c 4.433594 0 8 -3.765625 8 -8.445312 v -44.109376 c 0 -4.679687 -3.652344 -9.3125 -8 -8.445312 z m 0 0" fill="#6f7c7b"/>
    <path d="m 64 12 v 52 h 52 v -43.554688 c 0 -0.585937 -0.054688 -1.15625 -0.164062 -1.707031 c 0 0 0.003906 0 0 0 c -0.050782 -0.273437 -0.117188 -0.542969 -0.195313 -0.808593 c 0 0 0 0 0 -0.003907 c -0.15625 -0.527343 -0.359375 -1.035156 -0.601563 -1.511719 c -0.003906 0 0 0 0 -0.003906 c -0.246093 -0.476562 -0.535156 -0.925781 -0.863281 -1.34375 c 0 0 0.003907 0 0 0 c -0.160156 -0.207031 -0.332031 -0.40625 -0.511719 -0.597656 c -1.265624 -1.335938 -2.957031 -2.226562 -4.84375 -2.425781 c -0.269531 -0.027344 -0.542968 -0.042969 -0.820312 -0.042969 z m 0 0" fill="#27d6ae"/>
    <path d="m 84.808594 50.105469 c -0.101563 1.433593 -0.660156 2.558593 -1.675782 3.367187 c -0.632812 0.503906 -1.542968 0.753906 -2.726562 0.753906 c -1.480469 0 -2.570312 -0.363281 -3.269531 -1.089843 c -0.5 -0.519531 -0.835938 -1.4375 -1.003907 -2.75 l 3.101563 -0.308594 c 0.167969 0.53125 0.53125 0.796875 1.089844 0.796875 c 0.605469 0 0.941406 -0.429688 1.003906 -1.285156 l 1.382813 -19.308594 c 0.105468 -1.433594 0.664062 -2.558594 1.679687 -3.367188 c 0.632813 -0.503906 1.539063 -0.753906 2.722656 -0.753906 c 1.480469 0 2.570313 0.363282 3.269531 1.089844 c 0.503907 0.519531 0.839844 1.4375 1.007813 2.75 l -3.101563 0.308594 c -0.167968 -0.53125 -0.53125 -0.796875 -1.089843 -0.796875 c -0.605469 0 -0.941407 0.429687 -1.007813 1.285156 z m 10.480468 0 c -0.105468 1.433593 -0.664062 2.558593 -1.679687 3.367187 c -0.632813 0.503906 -1.539063 0.753906 -2.722656 0.753906 c -1.480469 0 -2.570313 -0.363281 -3.269531 -1.089843 c -0.503907 -0.519531 -0.839844 -1.4375 -1.007813 -2.75 l 3.101563 -0.308594 c 0.167968 0.53125 0.53125 0.796875 1.089843 0.796875 c 0.605469 0 0.941407 -0.429688 1.007813 -1.285156 l 1.382812 -19.308594 c 0.101563 -1.433594 0.660156 -2.558594 1.675782 -3.367188 c 0.632812 -0.503906 1.542968 -0.753906 2.726562 -0.753906 c 1.480469 0 2.570312 0.363282 3.269531 1.089844 c 0.5 0.519531 0.835938 1.4375 1.003907 2.75 l -3.101563 0.308594 c -0.167969 -0.53125 -0.53125 -0.796875 -1.089844 -0.796875 c -0.605469 0 -0.941406 0.429687 -1.003906 1.285156 z m 0 0" fill="#2f937c"/>
    <path d="m 98.46875 83.4375 c -0.34375 0 -0.832031 -0.160156 -1.457031 -0.472656 c -0.628907 -0.3125 -1.035157 -0.46875 -1.222657 -0.46875 c -0.4375 0 -0.890624 0.203125 -1.363281 0.609375 c -0.46875 0.378906 -0.859375 0.769531 -1.171875 1.175781 c -0.316406 0.40625 -0.675781 0.925781 -1.082031 1.550781 c -0.375 0.625 -0.609375 1.003907 -0.707031 1.128907 l 1.503906 7.328124 c 0.347656 1.660157 0.925781 2.492188 1.738281 2.492188 c 0.410157 0 0.800781 -0.15625 1.175781 -0.472656 c 0.40625 -0.34375 1.066407 -1.109375 1.972657 -2.300782 l 0.988281 0.65625 c -1.441406 2.070313 -2.710938 3.542969 -3.804688 4.417969 c -1.066406 0.878907 -2.164062 1.316407 -3.289062 1.316407 c -1.253906 0 -2.210938 -0.578126 -2.867188 -1.738282 c -0.625 -1.191406 -1.191406 -3.039062 -1.691406 -5.546875 l -1.128906 1.835938 c -1.347656 2.253906 -2.410156 3.726562 -3.195312 4.414062 c -0.78125 0.691407 -1.769532 1.035157 -2.960938 1.035157 c -0.875 0 -1.59375 -0.25 -2.160156 -0.753907 c -0.5625 -0.53125 -0.84375 -1.203125 -0.84375 -2.019531 c 0 -0.71875 0.25 -1.332031 0.75 -1.832031 c 0.5 -0.53125 1.113281 -0.796875 1.832031 -0.796875 c 0.472656 0 1.019531 0.171875 1.644531 0.515625 c 0.628906 0.3125 1.035156 0.46875 1.222656 0.46875 c 0.40625 0 0.765626 -0.125 1.082032 -0.375 c 0.3125 -0.28125 0.703125 -0.800781 1.171875 -1.550781 l 2.070312 -3.289063 l -1.410156 -7.234375 c -0.25 -1.160156 -0.566406 -1.976562 -0.941406 -2.445312 s -0.9375 -0.703126 -1.691407 -0.703126 c -0.4375 0 -0.984374 0.03125 -1.644531 0.09375 v -1.269531 l 7.847657 -1.128906 c 0.71875 1.066406 1.425781 3.226563 2.113281 6.484375 c 1.878906 -2.597656 3.304687 -4.320312 4.277343 -5.167969 c 1 -0.875 2.050782 -1.316406 3.148438 -1.316406 c 0.71875 0 1.34375 0.300781 1.878906 0.894531 c 0.5625 0.5625 0.84375 1.238282 0.84375 2.019532 c 0 0.660156 -0.265625 1.238281 -0.796875 1.738281 c -0.5 0.46875 -1.113281 0.707031 -1.832031 0.707031 z m 0 0" fill="#4d5b5a"/>
    <path d="m 98.46875 81.4375 c -0.34375 0 -0.832031 -0.160156 -1.457031 -0.472656 c -0.628907 -0.3125 -1.035157 -0.46875 -1.222657 -0.46875 c -0.4375 0 -0.890624 0.203125 -1.363281 0.609375 c -0.46875 0.378906 -0.859375 0.769531 -1.171875 1.175781 c -0.316406 0.40625 -0.675781 0.925781 -1.082031 1.550781 c -0.375 0.625 -0.609375 1.003907 -0.707031 1.128907 l 1.503906 7.328124 c 0.347656 1.660157 0.925781 2.492188 1.738281 2.492188 c 0.410157 0 0.800781 -0.15625 1.175781 -0.472656 c 0.40625 -0.34375 1.066407 -1.109375 1.972657 -2.300782 l 0.988281 0.65625 c -1.441406 2.070313 -2.710938 3.542969 -3.804688 4.417969 c -1.066406 0.878907 -2.164062 1.316407 -3.289062 1.316407 c -1.253906 0 -2.210938 -0.578126 -2.867188 -1.738282 c -0.625 -1.191406 -1.191406 -3.039062 -1.691406 -5.546875 l -1.128906 1.835938 c -1.347656 2.253906 -2.410156 3.726562 -3.195312 4.414062 c -0.78125 0.691407 -1.769532 1.035157 -2.960938 1.035157 c -0.875 0 -1.59375 -0.25 -2.160156 -0.753907 c -0.5625 -0.53125 -0.84375 -1.203125 -0.84375 -2.019531 c 0 -0.71875 0.25 -1.332031 0.75 -1.832031 c 0.5 -0.53125 1.113281 -0.796875 1.832031 -0.796875 c 0.472656 0 1.019531 0.171875 1.644531 0.515625 c 0.628906 0.3125 1.035156 0.46875 1.222656 0.46875 c 0.40625 0 0.765626 -0.125 1.082032 -0.375 c 0.3125 -0.28125 0.703125 -0.800781 1.171875 -1.550781 l 2.070312 -3.289063 l -1.410156 -7.234375 c -0.25 -1.160156 -0.566406 -1.976562 -0.941406 -2.445312 s -0.9375 -0.703126 -1.691407 -0.703126 c -0.4375 0 -0.984374 0.03125 -1.644531 0.09375 v -1.269531 l 7.847657 -1.128906 c 0.71875 1.066406 1.425781 3.226563 2.113281 6.484375 c 1.878906 -2.597656 3.304687 -4.320312 4.277343 -5.167969 c 1 -0.875 2.050782 -1.316406 3.148438 -1.316406 c 0.71875 0 1.34375 0.300781 1.878906 0.894531 c 0.5625 0.5625 0.84375 1.238282 0.84375 2.019532 c 0 0.660156 -0.265625 1.238281 -0.796875 1.738281 c -0.5 0.46875 -1.113281 0.707031 -1.832031 0.707031 z m 0 0" fill="#f6f5f4"/>
    <path d="m 84.808594 48.105469 c -0.101563 1.433593 -0.660156 2.558593 -1.675782 3.367187 c -0.632812 0.503906 -1.542968 0.753906 -2.726562 0.753906 c -1.480469 0 -2.570312 -0.363281 -3.269531 -1.089843 c -0.5 -0.519531 -0.835938 -1.4375 -1.003907 -2.75 l 3.101563 -0.308594 c 0.167969 0.53125 0.53125 0.796875 1.089844 0.796875 c 0.605469 0 0.941406 -0.429688 1.003906 -1.285156 l 1.382813 -19.308594 c 0.105468 -1.433594 0.664062 -2.558594 1.679687 -3.367188 c 0.632813 -0.503906 1.539063 -0.753906 2.722656 -0.753906 c 1.480469 0 2.570313 0.363282 3.269531 1.089844 c 0.503907 0.519531 0.839844 1.4375 1.007813 2.75 l -3.101563 0.308594 c -0.167968 -0.53125 -0.53125 -0.796875 -1.089843 -0.796875 c -0.605469 0 -0.941407 0.429687 -1.007813 1.285156 z m 10.480468 0 c -0.105468 1.433593 -0.664062 2.558593 -1.679687 3.367187 c -0.632813 0.503906 -1.539063 0.753906 -2.722656 0.753906 c -1.480469 0 -2.570313 -0.363281 -3.269531 -1.089843 c -0.503907 -0.519531 -0.839844 -1.4375 -1.007813 -2.75 l 3.101563 -0.308594 c 0.167968 0.53125 0.53125 0.796875 1.089843 0.796875 c 0.605469 0 0.941407 -0.429688 1.007813 -1.285156 l 1.382812 -19.308594 c 0.101563 -1.433594 0.660156 -2.558594 1.675782 -3.367188 c 0.632812 -0.503906 1.542968 -0.753906 2.726562 -0.753906 c 1.480469 0 2.570312 0.363282 3.269531 1.089844 c 0.5 0.519531 0.835938 1.4375 1.003907 2.75 l -3.101563 0.308594 c -0.167969 -0.53125 -0.53125 -0.796875 -1.089844 -0.796875 c -0.605469 0 -0.941406 0.429687 -1.003906 1.285156 z m 0 0" fill="#f6f5f4"/>
    <path d="m 26.835938 28 l 9.601562 12 l -9.601562 12 h 21.164062 v -4 h -12.835938 l 6.398438 -8 l -6.398438 -8 h 12.835938 v -4 z m 0 0" fill="#72928a"/>
    <path d="m 26.835938 26 l 9.601562 12 l -9.601562 12 h 21.164062 v -4 h -12.835938 l 6.398438 -8 l -6.398438 -8 h 12.835938 v -4 z m 0 0" fill="#ffffff"/>
    <path d="m 30.257812 81 c -2.34375 0 -4.347656 0.847656 -5.746093 2.34375 c -1.394531 1.492188 -2.175781 3.609375 -2.175781 6.09375 c 0 2.34375 0.707031 4.339844 1.988281 5.75 c 1.285156 1.414062 3.132812 2.214844 5.300781 2.214844 c 3.722656 0 6.175781 -2.382813 8.171875 -5.015625 c 1.921875 2.628906 4.3125 5.015625 8.101563 5.015625 c 2.304687 0 4.269531 -0.839844 5.640624 -2.316406 c 1.367188 -1.480469 2.125 -3.578126 2.125 -6.042969 c 0 -2.363281 -0.71875 -4.382813 -2.019531 -5.804688 c -1.304687 -1.425781 -3.183593 -2.238281 -5.386719 -2.238281 c -3.675781 0 -6.125 2.265625 -8.089843 4.78125 c -1.839844 -2.507812 -4.132813 -4.78125 -7.910157 -4.78125 z m -0.277343 3.777344 c 1.207031 0 2.171875 0.507812 3.101562 1.367187 c 0.847657 0.785157 1.640625 1.914063 2.449219 3.09375 c -0.828125 1.171875 -1.644531 2.28125 -2.5 3.054688 c -0.9375 0.84375 -1.890625 1.332031 -3.011719 1.332031 c -1.070312 0 -1.90625 -0.425781 -2.519531 -1.199219 c -0.613281 -0.777343 -0.988281 -1.921875 -0.988281 -3.34375 c 0 -1.359375 0.371093 -2.441406 0.976562 -3.167969 c 0.605469 -0.730468 1.433594 -1.136718 2.492188 -1.136718 z m 15.917969 0 c 1.113281 0 1.96875 0.433594 2.589843 1.234375 c 0.621094 0.804687 1 2 1 3.507812 c 0 1.363281 -0.34375 2.390625 -0.917969 3.066407 c -0.574218 0.671874 -1.378906 1.039062 -2.472656 1.039062 c -1.308594 0 -2.316406 -0.527344 -3.265625 -1.417969 c -0.867187 -0.816406 -1.652343 -1.992187 -2.445312 -3.226562 c 0.808593 -1.136719 1.609375 -2.199219 2.464843 -2.933594 c 0.933594 -0.804687 1.898438 -1.269531 3.046876 -1.269531 z m 0 0" fill="#41a78b"/>
    <path d="m 30.257812 79 c -2.34375 0 -4.347656 0.847656 -5.746093 2.34375 c -1.394531 1.492188 -2.175781 3.609375 -2.175781 6.09375 c 0 2.34375 0.707031 4.339844 1.988281 5.75 c 1.285156 1.414062 3.132812 2.214844 5.300781 2.214844 c 3.722656 0 6.175781 -2.382813 8.171875 -5.015625 c 1.921875 2.628906 4.3125 5.015625 8.101563 5.015625 c 2.304687 0 4.269531 -0.839844 5.640624 -2.316406 c 1.367188 -1.480469 2.125 -3.578126 2.125 -6.042969 c 0 -2.363281 -0.71875 -4.382813 -2.019531 -5.804688 c -1.304687 -1.425781 -3.183593 -2.238281 -5.386719 -2.238281 c -3.675781 0 -6.125 2.265625 -8.089843 4.78125 c -1.839844 -2.507812 -4.132813 -4.78125 -7.910157 -4.78125 z m -0.277343 3.777344 c 1.207031 0 2.171875 0.507812 3.101562 1.367187 c 0.847657 0.785157 1.640625 1.914063 2.449219 3.09375 c -0.828125 1.171875 -1.644531 2.28125 -2.5 3.054688 c -0.9375 0.84375 -1.890625 1.332031 -3.011719 1.332031 c -1.070312 0 -1.90625 -0.425781 -2.519531 -1.199219 c -0.613281 -0.777343 -0.988281 -1.921875 -0.988281 -3.34375 c 0 -1.359375 0.371093 -2.441406 0.976562 -3.167969 c 0.605469 -0.730468 1.433594 -1.136718 2.492188 -1.136718 z m 15.917969 0 c 1.113281 0 1.96875 0.433594 2.589843 1.234375 c 0.621094 0.804687 1 2 1 3.507812 c 0 1.363281 -0.34375 2.390625 -0.917969 3.066407 c -0.574218 0.671874 -1.378906 1.039062 -2.472656 1.039062 c -1.308594 0 -2.316406 -0.527344 -3.265625 -1.417969 c -0.867187 -0.816406 -1.652343 -1.992187 -2.445312 -3.226562 c 0.808593 -1.136719 1.609375 -2.199219 2.464843 -2.933594 c 0.933594 -0.804687 1.898438 -1.269531 3.046876 -1.269531 z m 0 0" fill="#ffffff"/>
</svg>
