<?xml version="1.0" encoding="UTF-8"?>
<svg height="128px" viewBox="0 0 128 128" width="128px" xmlns="http://www.w3.org/2000/svg" xmlns:xlink="http://www.w3.org/1999/xlink">
    <linearGradient id="a" gradientTransform="matrix(0.25 0 0 0.18617 0 69.085114)" gradientUnits="userSpaceOnUse" x1="47.999996" x2="463.999969" y1="58.628551" y2="58.628551">
        <stop offset="0" stop-color="#cf1e46"/>
        <stop offset="0.0384615" stop-color="#ff8da8"/>
        <stop offset="0.0769231" stop-color="#dc1241"/>
        <stop offset="1" stop-color="#ed2150"/>
    </linearGradient>
    <linearGradient id="b" gradientTransform="matrix(0.269231 0 0 0.18617 -4.92308 69.085098)" gradientUnits="userSpaceOnUse" x1="258.213806" x2="449.142853" y1="58.628605" y2="58.628605">
        <stop offset="0" stop-color="#7446c3"/>
        <stop offset="0.84437" stop-color="#7345c2"/>
        <stop offset="0.922185" stop-color="#9b7dce"/>
        <stop offset="1" stop-color="#6338ac"/>
    </linearGradient>
    <symbol id="c" overflow="visible">
        <path d="m 19.40625 -16.34375 c -0.34375 0 -0.828125 -0.15625 -1.453125 -0.46875 c -0.625 -0.320312 -1.039063 -0.484375 -1.234375 -0.484375 c -0.4375 0 -0.890625 0.199219 -1.359375 0.59375 c -0.46875 0.398437 -0.859375 0.796875 -1.171875 1.203125 s -0.667969 0.921875 -1.0625 1.546875 c -0.386719 0.625 -0.625 1 -0.71875 1.125 l 1.5 7.328125 c 0.34375 1.667969 0.921875 2.5 1.734375 2.5 c 0.40625 0 0.804687 -0.164062 1.203125 -0.5 c 0.394531 -0.332031 1.046875 -1.09375 1.953125 -2.28125 l 0.984375 0.65625 c -1.4375 2.074219 -2.699219 3.546875 -3.78125 4.421875 c -1.085938 0.875 -2.1875 1.3125 -3.3125 1.3125 c -1.25 0 -2.199219 -0.5859375 -2.84375 -1.75 c -0.648438 -1.175781 -1.21875 -3.019531 -1.71875 -5.53125 l -1.125 1.828125 c -1.34375 2.261719 -2.414062 3.734375 -3.203125 4.421875 c -0.78125 0.6875 -1.765625 1.03125 -2.953125 1.03125 c -0.875 0 -1.59375 -0.257813 -2.15625 -0.765625 c -0.5625 -0.519531 -0.84375 -1.1875 -0.84375 -2 c 0 -0.71875 0.25 -1.335938 0.75 -1.859375 c 0.5 -0.519531 1.109375 -0.78125 1.828125 -0.78125 c 0.46875 0 1.015625 0.167969 1.640625 0.5 c 0.625 0.324219 1.03125 0.484375 1.21875 0.484375 c 0.414062 0 0.78125 -0.128906 1.09375 -0.390625 c 0.3125 -0.269531 0.703125 -0.78125 1.171875 -1.53125 l 2.0625 -3.28125 l -1.40625 -7.234375 c -0.25 -1.164062 -0.5625 -1.984375 -0.9375 -2.453125 s -0.9375 -0.703125 -1.6875 -0.703125 c -0.449219 0 -1 0.03125 -1.65625 0.09375 v -1.265625 l 7.84375 -1.125 c 0.726563 1.0625 1.4375 3.226563 2.125 6.484375 c 1.875 -2.601562 3.304687 -4.332031 4.296875 -5.1875 c 0.988281 -0.863281 2.03125 -1.296875 3.125 -1.296875 c 0.71875 0 1.347656 0.292969 1.890625 0.875 c 0.550781 0.574219 0.828125 1.25 0.828125 2.03125 c 0 0.65625 -0.261719 1.230469 -0.78125 1.71875 c -0.511719 0.492187 -1.125 0.734375 -1.84375 0.734375 z m 0 0"/>
    </symbol>
    <path d="m 20 46 h 88 c 4.417969 0 8 3.582031 8 8 v 54 c 0 4.417969 -3.582031 8 -8 8 h -88 c -4.417969 0 -8 -3.582031 -8 -8 v -54 c 0 -4.417969 3.582031 -8 8 -8 z m 0 0" fill="url(#a)"/>
    <path d="m 64 46 v 70 h 44 c 4.433594 0 8 -3.566406 8 -8 v -54 c 0 -4.433594 -3.566406 -8 -8 -8 z m 0 0" fill="url(#b)"/>
    <path d="m 17.230469 46 h 57.539062 c 2.886719 0 5.230469 3.78125 5.230469 8.445312 v 49.109376 c 0 4.664062 -2.34375 8.445312 -5.230469 8.445312 h -57.539062 c -2.886719 0 -5.230469 -3.78125 -5.230469 -8.445312 v -49.109376 c 0 -4.664062 2.34375 -8.445312 5.230469 -8.445312 z m 0 0" fill="#ff658a"/>
    <path d="m 20 12 c -4.433594 0 -7.851562 3.769531 -8 8.445312 v 43.554688 h 88 v -43.554688 c 0 -4.679687 -3.566406 -8.445312 -8 -8.445312 z m 0 0" fill="#ffc75f"/>
    <path d="m 64 59.773438 v 52.226562 h 44 c 4.433594 0 8 -3.765625 8 -8.445312 v -44.109376 c 0 -4.679687 -3.652344 -9.3125 -8 -8.445312 z m 0 0" fill="#9d76dd"/>
    <path d="m 64 12 v 52 h 52 v -43.554688 c 0 -0.585937 -0.054688 -1.15625 -0.164062 -1.707031 c 0 0 0.003906 0 0 0 c -0.050782 -0.273437 -0.117188 -0.542969 -0.195313 -0.808593 c 0 0 0 0 0 -0.003907 c -0.15625 -0.527343 -0.359375 -1.035156 -0.601563 -1.511719 c -0.003906 0 0 0 0 -0.003906 c -0.246093 -0.476562 -0.535156 -0.925781 -0.863281 -1.34375 c 0 0 0.003907 0 0 0 c -0.160156 -0.207031 -0.332031 -0.40625 -0.511719 -0.597656 c -1.265624 -1.335938 -2.957031 -2.226562 -4.84375 -2.425781 c -0.269531 -0.027344 -0.542968 -0.042969 -0.820312 -0.042969 z m 0 0" fill="#ff8155"/>
    <path d="m 84.808594 50.105469 c -0.101563 1.433593 -0.660156 2.558593 -1.675782 3.367187 c -0.632812 0.503906 -1.542968 0.753906 -2.726562 0.753906 c -1.480469 0 -2.570312 -0.363281 -3.269531 -1.089843 c -0.5 -0.519531 -0.835938 -1.4375 -1.003907 -2.75 l 3.101563 -0.308594 c 0.167969 0.53125 0.53125 0.796875 1.089844 0.796875 c 0.605469 0 0.941406 -0.429688 1.003906 -1.285156 l 1.382813 -19.308594 c 0.105468 -1.433594 0.664062 -2.558594 1.679687 -3.367188 c 0.632813 -0.503906 1.539063 -0.753906 2.722656 -0.753906 c 1.480469 0 2.570313 0.363282 3.269531 1.089844 c 0.503907 0.519531 0.839844 1.4375 1.007813 2.75 l -3.101563 0.308594 c -0.167968 -0.53125 -0.53125 -0.796875 -1.089843 -0.796875 c -0.605469 0 -0.941407 0.429687 -1.007813 1.285156 z m 10.480468 0 c -0.105468 1.433593 -0.664062 2.558593 -1.679687 3.367187 c -0.632813 0.503906 -1.539063 0.753906 -2.722656 0.753906 c -1.480469 0 -2.570313 -0.363281 -3.269531 -1.089843 c -0.503907 -0.519531 -0.839844 -1.4375 -1.007813 -2.75 l 3.101563 -0.308594 c 0.167968 0.53125 0.53125 0.796875 1.089843 0.796875 c 0.605469 0 0.941407 -0.429688 1.007813 -1.285156 l 1.382812 -19.308594 c 0.101563 -1.433594 0.660156 -2.558594 1.675782 -3.367188 c 0.632812 -0.503906 1.542968 -0.753906 2.726562 -0.753906 c 1.480469 0 2.570312 0.363282 3.269531 1.089844 c 0.5 0.519531 0.835938 1.4375 1.003907 2.75 l -3.101563 0.308594 c -0.167969 -0.53125 -0.53125 -0.796875 -1.089844 -0.796875 c -0.605469 0 -0.941406 0.429687 -1.003906 1.285156 z m 0 0" fill="#b64d28"/>
    <use fill="#6d4f9d" x="79.308594" xlink:href="#c" y="99.788086"/>
    <use fill="#f6f5f4" x="79.308594" xlink:href="#c" y="97.788086"/>
    <path d="m 84.808594 48.105469 c -0.101563 1.433593 -0.660156 2.558593 -1.675782 3.367187 c -0.632812 0.503906 -1.542968 0.753906 -2.726562 0.753906 c -1.480469 0 -2.570312 -0.363281 -3.269531 -1.089843 c -0.5 -0.519531 -0.835938 -1.4375 -1.003907 -2.75 l 3.101563 -0.308594 c 0.167969 0.53125 0.53125 0.796875 1.089844 0.796875 c 0.605469 0 0.941406 -0.429688 1.003906 -1.285156 l 1.382813 -19.308594 c 0.105468 -1.433594 0.664062 -2.558594 1.679687 -3.367188 c 0.632813 -0.503906 1.539063 -0.753906 2.722656 -0.753906 c 1.480469 0 2.570313 0.363282 3.269531 1.089844 c 0.503907 0.519531 0.839844 1.4375 1.007813 2.75 l -3.101563 0.308594 c -0.167968 -0.53125 -0.53125 -0.796875 -1.089843 -0.796875 c -0.605469 0 -0.941407 0.429687 -1.007813 1.285156 z m 10.480468 0 c -0.105468 1.433593 -0.664062 2.558593 -1.679687 3.367187 c -0.632813 0.503906 -1.539063 0.753906 -2.722656 0.753906 c -1.480469 0 -2.570313 -0.363281 -3.269531 -1.089843 c -0.503907 -0.519531 -0.839844 -1.4375 -1.007813 -2.75 l 3.101563 -0.308594 c 0.167968 0.53125 0.53125 0.796875 1.089843 0.796875 c 0.605469 0 0.941407 -0.429688 1.007813 -1.285156 l 1.382812 -19.308594 c 0.101563 -1.433594 0.660156 -2.558594 1.675782 -3.367188 c 0.632812 -0.503906 1.542968 -0.753906 2.726562 -0.753906 c 1.480469 0 2.570312 0.363282 3.269531 1.089844 c 0.5 0.519531 0.835938 1.4375 1.003907 2.75 l -3.101563 0.308594 c -0.167969 -0.53125 -0.53125 -0.796875 -1.089844 -0.796875 c -0.605469 0 -0.941406 0.429687 -1.003906 1.285156 z m 0 0" fill="#f6f5f4"/>
    <path d="m 26.835938 28 l 9.601562 12 l -9.601562 12 h 21.164062 v -4 h -12.835938 l 6.398438 -8 l -6.398438 -8 h 12.835938 v -4 z m 0 0" fill="#bf800f"/>
    <path d="m 26.835938 26 l 9.601562 12 l -9.601562 12 h 21.164062 v -4 h -12.835938 l 6.398438 -8 l -6.398438 -8 h 12.835938 v -4 z m 0 0" fill="#ffffff"/>
    <path d="m 30.257812 81 c -2.34375 0 -4.347656 0.847656 -5.746093 2.34375 c -1.394531 1.492188 -2.175781 3.609375 -2.175781 6.09375 c 0 2.34375 0.707031 4.339844 1.988281 5.75 c 1.285156 1.414062 3.132812 2.214844 5.300781 2.214844 c 3.722656 0 6.175781 -2.382813 8.171875 -5.015625 c 1.921875 2.628906 4.3125 5.015625 8.101563 5.015625 c 2.304687 0 4.269531 -0.839844 5.640624 -2.316406 c 1.367188 -1.480469 2.125 -3.578126 2.125 -6.042969 c 0 -2.363281 -0.71875 -4.382813 -2.019531 -5.804688 c -1.304687 -1.425781 -3.183593 -2.238281 -5.386719 -2.238281 c -3.675781 0 -6.125 2.265625 -8.089843 4.78125 c -1.839844 -2.507812 -4.132813 -4.78125 -7.910157 -4.78125 z m -0.277343 3.777344 c 1.207031 0 2.171875 0.507812 3.101562 1.367187 c 0.847657 0.785157 1.640625 1.914063 2.449219 3.09375 c -0.828125 1.171875 -1.644531 2.28125 -2.5 3.054688 c -0.9375 0.84375 -1.890625 1.332031 -3.011719 1.332031 c -1.070312 0 -1.90625 -0.425781 -2.519531 -1.199219 c -0.613281 -0.777343 -0.988281 -1.921875 -0.988281 -3.34375 c 0 -1.359375 0.371093 -2.441406 0.976562 -3.167969 c 0.605469 -0.730468 1.433594 -1.136718 2.492188 -1.136718 z m 15.917969 0 c 1.113281 0 1.96875 0.433594 2.589843 1.234375 c 0.621094 0.804687 1 2 1 3.507812 c 0 1.363281 -0.34375 2.390625 -0.917969 3.066407 c -0.574218 0.671874 -1.378906 1.039062 -2.472656 1.039062 c -1.308594 0 -2.316406 -0.527344 -3.265625 -1.417969 c -0.867187 -0.816406 -1.652343 -1.992187 -2.445312 -3.226562 c 0.808593 -1.136719 1.609375 -2.199219 2.464843 -2.933594 c 0.933594 -0.804687 1.898438 -1.269531 3.046876 -1.269531 z m 0 0" fill="#c1254a"/>
    <path d="m 30.257812 79 c -2.34375 0 -4.347656 0.847656 -5.746093 2.34375 c -1.394531 1.492188 -2.175781 3.609375 -2.175781 6.09375 c 0 2.34375 0.707031 4.339844 1.988281 5.75 c 1.285156 1.414062 3.132812 2.214844 5.300781 2.214844 c 3.722656 0 6.175781 -2.382813 8.171875 -5.015625 c 1.921875 2.628906 4.3125 5.015625 8.101563 5.015625 c 2.304687 0 4.269531 -0.839844 5.640624 -2.316406 c 1.367188 -1.480469 2.125 -3.578126 2.125 -6.042969 c 0 -2.363281 -0.71875 -4.382813 -2.019531 -5.804688 c -1.304687 -1.425781 -3.183593 -2.238281 -5.386719 -2.238281 c -3.675781 0 -6.125 2.265625 -8.089843 4.78125 c -1.839844 -2.507812 -4.132813 -4.78125 -7.910157 -4.78125 z m -0.277343 3.777344 c 1.207031 0 2.171875 0.507812 3.101562 1.367187 c 0.847657 0.785157 1.640625 1.914063 2.449219 3.09375 c -0.828125 1.171875 -1.644531 2.28125 -2.5 3.054688 c -0.9375 0.84375 -1.890625 1.332031 -3.011719 1.332031 c -1.070312 0 -1.90625 -0.425781 -2.519531 -1.199219 c -0.613281 -0.777343 -0.988281 -1.921875 -0.988281 -3.34375 c 0 -1.359375 0.371093 -2.441406 0.976562 -3.167969 c 0.605469 -0.730468 1.433594 -1.136718 2.492188 -1.136718 z m 15.917969 0 c 1.113281 0 1.96875 0.433594 2.589843 1.234375 c 0.621094 0.804687 1 2 1 3.507812 c 0 1.363281 -0.34375 2.390625 -0.917969 3.066407 c -0.574218 0.671874 -1.378906 1.039062 -2.472656 1.039062 c -1.308594 0 -2.316406 -0.527344 -3.265625 -1.417969 c -0.867187 -0.816406 -1.652343 -1.992187 -2.445312 -3.226562 c 0.808593 -1.136719 1.609375 -2.199219 2.464843 -2.933594 c 0.933594 -0.804687 1.898438 -1.269531 3.046876 -1.269531 z m 0 0" fill="#ffffff"/>
</svg>
