<?xml version="1.0" encoding="UTF-8"?>
<svg height="16px" viewBox="0 0 16 16" width="16px" xmlns="http://www.w3.org/2000/svg" xmlns:xlink="http://www.w3.org/1999/xlink">
    <filter id="a" height="100%" width="100%" x="0%" y="0%">
        <feColorMatrix in="SourceGraphic" type="matrix" values="0 0 0 0 1 0 0 0 0 1 0 0 0 0 1 0 0 0 1 0"/>
    </filter>
    <mask id="b">
        <g filter="url(#a)">
            <path d="m 0 0 h 16 v 16 h -16 z" fill-opacity="0.3"/>
        </g>
    </mask>
    <clipPath id="c">
        <path d="m 0 0 h 800 v 800 h -800 z"/>
    </clipPath>
    <mask id="d">
        <g filter="url(#a)">
            <path d="m 0 0 h 16 v 16 h -16 z" fill-opacity="0.35"/>
        </g>
    </mask>
    <clipPath id="e">
        <path d="m 0 0 h 800 v 800 h -800 z"/>
    </clipPath>
    <mask id="f">
        <g filter="url(#a)">
            <path d="m 0 0 h 16 v 16 h -16 z" fill-opacity="0.35"/>
        </g>
    </mask>
    <clipPath id="g">
        <path d="m 0 0 h 800 v 800 h -800 z"/>
    </clipPath>
    <mask id="h">
        <g filter="url(#a)">
            <path d="m 0 0 h 16 v 16 h -16 z" fill-opacity="0.35"/>
        </g>
    </mask>
    <clipPath id="i">
        <path d="m 0 0 h 800 v 800 h -800 z"/>
    </clipPath>
    <mask id="j">
        <g filter="url(#a)">
            <path d="m 0 0 h 16 v 16 h -16 z" fill-opacity="0.35"/>
        </g>
    </mask>
    <clipPath id="k">
        <path d="m 0 0 h 800 v 800 h -800 z"/>
    </clipPath>
    <g clip-path="url(#c)" mask="url(#b)" transform="matrix(1 0 0 1 -100 -340)">
        <path d="m 142.5 351 h 10.449219 c -1.183594 0.492188 -1.296875 2.457031 0 3 h -10.449219 z m 0 0" fill="#2e3436"/>
    </g>
    <g clip-path="url(#e)" mask="url(#d)" transform="matrix(1 0 0 1 -100 -340)">
        <path d="m 104 502 c 0 0.550781 -0.449219 1 -1 1 s -1 -0.449219 -1 -1 s 0.449219 -1 1 -1 s 1 0.449219 1 1 z m 0 0" fill="#2e3436"/>
    </g>
    <g clip-path="url(#g)" mask="url(#f)" transform="matrix(1 0 0 1 -100 -340)">
        <path d="m 106 501 v 2 h 8 v -2 z m 0 0" fill="#2e3436" fill-rule="evenodd"/>
    </g>
    <g clip-path="url(#i)" mask="url(#h)" transform="matrix(1 0 0 1 -100 -340)">
        <path d="m 104 514 c 0 0.550781 -0.449219 1 -1 1 s -1 -0.449219 -1 -1 s 0.449219 -1 1 -1 s 1 0.449219 1 1 z m 0 0" fill="#2e3436"/>
    </g>
    <g clip-path="url(#k)" mask="url(#j)" transform="matrix(1 0 0 1 -100 -340)">
        <path d="m 106 513 v 2 h 8 v -2 z m 0 0" fill="#2e3436" fill-rule="evenodd"/>
    </g>
    <path d="m 10.847656 1.0625 c 0.558594 0.511719 1.226563 1.210938 2.183594 2.171875 c 0.28125 0.28125 0.390625 0.742187 0.175781 1.246094 c -0.097656 0.246093 -0.039062 0.527343 0.148438 0.71875 c 0.265625 0.25 0.683593 0.25 0.945312 0 c 0.261719 -0.261719 0.792969 -0.089844 0.925781 0.042969 l 0.480469 0.480468 v -0.003906 c 0.390625 0.390625 0.390625 1.023438 0 1.417969 l -2.367187 2.363281 c -0.390625 0.390625 -1.023438 0.390625 -1.417969 0 l -0.457031 -0.519531 c -0.261719 -0.261719 -0.261719 -0.6875 0 -0.945313 c 0.261718 -0.261718 0.261718 -0.6875 0 -0.945312 c -0.265625 -0.253906 -0.75 -0.300782 -1.011719 -0.046875 l -1.171875 1.105469 l -2.445312 -2.445313 s 0.839843 -0.828125 1.089843 -1.0625 c 0.613281 -0.625 0.058594 -1.152344 -0.210937 -1.421875 c -0.664063 -0.660156 -2.042969 -0.921875 -2.976563 -0.878906 c -0.292969 0.007812 -0.558593 -0.167969 -0.660156 -0.441406 c -0.097656 -0.277344 -0.003906 -0.589844 0.230469 -0.761719 c 2.757812 -1.1640628 5.453125 -1.1640628 6.539062 -0.074219 z m -2.445312 8.035156 l -5.289063 5.28125 c -0.375 0.375 -0.675781 0.625 -1.019531 0.621094 c -1.09375 -0.027344 -1.972656 -0.90625 -2 -2 c 0 -0.53125 0.125 -0.722656 0.503906 -1.097656 l 5.292969 -5.273438 z m 0 0" fill="#2e3436"/>
</svg>
