<?xml version="1.0" encoding="UTF-8"?>
<svg height="16px" viewBox="0 0 16 16" width="16px" xmlns="http://www.w3.org/2000/svg" xmlns:xlink="http://www.w3.org/1999/xlink">
    <filter id="a" height="100%" width="100%" x="0%" y="0%">
        <feColorMatrix in="SourceGraphic" type="matrix" values="0 0 0 0 1 0 0 0 0 1 0 0 0 0 1 0 0 0 1 0"/>
    </filter>
    <mask id="b">
        <g filter="url(#a)">
            <path d="m 0 0 h 16 v 16 h -16 z" fill-opacity="0.3"/>
        </g>
    </mask>
    <clipPath id="c">
        <path d="m 0 0 h 800 v 800 h -800 z"/>
    </clipPath>
    <mask id="d">
        <g filter="url(#a)">
            <path d="m 0 0 h 16 v 16 h -16 z" fill-opacity="0.35"/>
        </g>
    </mask>
    <clipPath id="e">
        <path d="m 0 0 h 800 v 800 h -800 z"/>
    </clipPath>
    <mask id="f">
        <g filter="url(#a)">
            <path d="m 0 0 h 16 v 16 h -16 z" fill-opacity="0.35"/>
        </g>
    </mask>
    <clipPath id="g">
        <path d="m 0 0 h 800 v 800 h -800 z"/>
    </clipPath>
    <mask id="h">
        <g filter="url(#a)">
            <path d="m 0 0 h 16 v 16 h -16 z" fill-opacity="0.35"/>
        </g>
    </mask>
    <clipPath id="i">
        <path d="m 0 0 h 800 v 800 h -800 z"/>
    </clipPath>
    <mask id="j">
        <g filter="url(#a)">
            <path d="m 0 0 h 16 v 16 h -16 z" fill-opacity="0.35"/>
        </g>
    </mask>
    <clipPath id="k">
        <path d="m 0 0 h 800 v 800 h -800 z"/>
    </clipPath>
    <g fill="#2e3436">
        <path d="m 6.5 13.988281 v -12 h -5 v 12 z m 0 0" fill-opacity="0.34902"/>
        <path d="m 3 0.988281 c -1.644531 0 -3 1.355469 -3 3 v 8 c 0 1.644531 1.355469 3 3 3 h 10 c 1.644531 0 3 -1.355469 3 -3 v -8 c 0 -1.644531 -1.355469 -3 -3 -3 z m 0 2 h 10 c 0.570312 0 1 0.429688 1 1 v 8 c 0 0.570313 -0.429688 1 -1 1 h -10 c -0.570312 0 -1 -0.429687 -1 -1 v -8 c 0 -0.570312 0.429688 -1 1 -1 z m 0 0"/>
        <path d="m 6 1.988281 h 1 v 12 h -1 z m 0 0"/>
    </g>
    <g clip-path="url(#c)" mask="url(#b)" transform="matrix(1 0 0 1 -400 -340.011719)">
        <path d="m 142.5 351 h 10.449219 c -1.183594 0.492188 -1.296875 2.457031 0 3 h -10.449219 z m 0 0" fill="#2e3436"/>
    </g>
    <g clip-path="url(#e)" mask="url(#d)" transform="matrix(1 0 0 1 -400 -340.011719)">
        <path d="m 104 502 c 0 0.550781 -0.449219 1 -1 1 s -1 -0.449219 -1 -1 s 0.449219 -1 1 -1 s 1 0.449219 1 1 z m 0 0" fill="#2e3436"/>
    </g>
    <g clip-path="url(#g)" mask="url(#f)" transform="matrix(1 0 0 1 -400 -340.011719)">
        <path d="m 106 501 v 2 h 8 v -2 z m 0 0" fill="#2e3436" fill-rule="evenodd"/>
    </g>
    <g clip-path="url(#i)" mask="url(#h)" transform="matrix(1 0 0 1 -400 -340.011719)">
        <path d="m 104 514 c 0 0.550781 -0.449219 1 -1 1 s -1 -0.449219 -1 -1 s 0.449219 -1 1 -1 s 1 0.449219 1 1 z m 0 0" fill="#2e3436"/>
    </g>
    <g clip-path="url(#k)" mask="url(#j)" transform="matrix(1 0 0 1 -400 -340.011719)">
        <path d="m 106 513 v 2 h 8 v -2 z m 0 0" fill="#2e3436" fill-rule="evenodd"/>
    </g>
</svg>
