<?xml version="1.0" encoding="UTF-8" standalone="no"?>
<svg
   xmlns:osb="http://www.openswatchbook.org/uri/2009/osb"
   xmlns:dc="http://purl.org/dc/elements/1.1/"
   xmlns:cc="http://creativecommons.org/ns#"
   xmlns:rdf="http://www.w3.org/1999/02/22-rdf-syntax-ns#"
   xmlns:svg="http://www.w3.org/2000/svg"
   xmlns="http://www.w3.org/2000/svg"
   xmlns:sodipodi="http://sodipodi.sourceforge.net/DTD/sodipodi-0.dtd"
   xmlns:inkscape="http://www.inkscape.org/namespaces/inkscape"
   width="16.000002"
   viewBox="0 0 16.000002 16"
   version="1.1"
   id="svg7384"
   height="16"
   sodipodi:docname="chapter-symbolic.svg"
   inkscape:version="1.0.2 (e86c870879, 2021-01-15)">
  <sodipodi:namedview
     pagecolor="#ffffff"
     bordercolor="#666666"
     borderopacity="1"
     objecttolerance="10"
     gridtolerance="10"
     guidetolerance="10"
     inkscape:pageopacity="0"
     inkscape:pageshadow="2"
     inkscape:window-width="1366"
     inkscape:window-height="704"
     id="namedview14"
     showgrid="false"
     inkscape:zoom="35.438411"
     inkscape:cx="10.611508"
     inkscape:cy="7.5093325"
     inkscape:window-x="0"
     inkscape:window-y="0"
     inkscape:window-maximized="1"
     inkscape:current-layer="layer11"
     inkscape:document-rotation="0" />
  <metadata
     id="metadata90">
    <rdf:RDF>
      <cc:Work
         rdf:about="">
        <dc:format>image/svg+xml</dc:format>
        <dc:type
           rdf:resource="http://purl.org/dc/dcmitype/StillImage" />
        <dc:title>Gnome Symbolic Icon Theme</dc:title>
      </cc:Work>
    </rdf:RDF>
  </metadata>
  <title
     id="title9167">Gnome Symbolic Icon Theme</title>
  <defs
     id="defs7386">
    <inkscape:path-effect
       effect="fillet_chamfer"
       id="path-effect903"
       is_visible="true"
       lpeversion="1"
       satellites_param="F,0,0,1,0,2,0,1 @ F,0,0,1,0,2,0,1 @ F,0,0,1,0,2,0,1 @ F,0,0,1,0,2,0,1"
       unit="px"
       method="auto"
       mode="F"
       radius="2"
       chamfer_steps="1"
       flexible="false"
       use_knot_distance="true"
       apply_no_radius="true"
       apply_with_radius="true"
       only_selected="false"
       hide_knots="false" />
    <linearGradient
       osb:paint="solid"
       id="linearGradient7212">
      <stop
         style="stop-color:#000000;stop-opacity:1;"
         offset="0"
         id="stop7214" />
    </linearGradient>
  </defs>
  <g
     transform="translate(-301.0002,-177)"
     style="display:inline"
     id="layer9" />
  <g
     transform="translate(-59.999998,-544)"
     id="layer1" />
  <g
     transform="translate(-59.999998,-544)"
     style="display:inline"
     id="layer10" />
  <g
     transform="translate(-59.999998,-544)"
     id="g6387" />
  <g
     transform="translate(-59.999998,-544)"
     id="layer11">
    <path
       id="path74842-3"
       style="vector-effect:none;fill:#2e3436;fill-opacity:1;stroke:none;stroke-width:1.085;stroke-linecap:butt;stroke-linejoin:miter;stroke-miterlimit:4;stroke-dasharray:none;stroke-dashoffset:0;stroke-opacity:1;marker:none"
       d="M 2.9804688 2 A 2 2 0 0 0 0.98046875 4 L 0.98046875 13.019531 A 2 2 0 0 0 2.9804688 15.019531 L 5.7597656 15.019531 C 4.906914 14.718165 4.171718 14.248391 3.5605469 13.599609 C 2.4192147 12.382188 1.8476563 10.722316 1.8476562 8.6210938 C 1.8476562 6.5140189 2.4192147 4.8560993 3.5605469 3.6445312 C 4.3482346 2.804331 5.3401661 2.260338 6.5292969 2 L 2.9804688 2 z M 9.8574219 2 C 10.059188 2.0426081 10.266587 2.0735192 10.460938 2.1328125 C 11.157443 2.337667 11.809258 2.6488911 12.417969 3.0644531 L 12.417969 4.9335938 C 11.820964 4.3775601 11.182853 3.9625903 10.503906 3.6875 C 9.8308129 3.4124097 9.1144038 3.2753906 8.3535156 3.2753906 C 6.8551513 3.2753906 5.7081154 3.733425 4.9121094 4.6523438 C 4.1161033 5.5654095 3.7167969 6.88861 3.7167969 8.6210938 C 3.7167969 10.347725 4.1161033 11.670925 4.9121094 12.589844 C 5.7081154 13.50291 6.8551513 13.958984 8.3535156 13.958984 C 9.1144038 13.958984 9.8308129 13.821965 10.503906 13.546875 C 11.182853 13.271785 11.820964 12.856815 12.417969 12.300781 L 12.417969 14.152344 C 11.861947 14.530019 11.271432 14.811094 10.654297 15.019531 L 12 15.019531 A 2 2 0 0 0 14 13.019531 L 14 4 A 2 2 0 0 0 12 2 L 9.8574219 2 z "
       transform="translate(59.999998,544)" />
  </g>
</svg>
