<?xml version="1.0" encoding="UTF-8" standalone="no"?>
<svg
   height="16px"
   viewBox="0 0 16 16"
   width="16px"
   version="1.1"
   id="svg4"
   sodipodi:docname="document-bibtex-symbolic.svg"
   inkscape:version="1.2.2 (b0a8486541, 2022-12-01)"
   xmlns:inkscape="http://www.inkscape.org/namespaces/inkscape"
   xmlns:sodipodi="http://sodipodi.sourceforge.net/DTD/sodipodi-0.dtd"
   xmlns="http://www.w3.org/2000/svg"
   xmlns:svg="http://www.w3.org/2000/svg">
  <defs
     id="defs8" />
  <sodipodi:namedview
     id="namedview6"
     pagecolor="#ffffff"
     bordercolor="#000000"
     borderopacity="0.25"
     inkscape:showpageshadow="2"
     inkscape:pageopacity="0.0"
     inkscape:pagecheckerboard="0"
     inkscape:deskcolor="#d1d1d1"
     showgrid="false"
     inkscape:zoom="14.75"
     inkscape:cx="7.9661017"
     inkscape:cy="8"
     inkscape:window-width="1440"
     inkscape:window-height="831"
     inkscape:window-x="0"
     inkscape:window-y="0"
     inkscape:window-maximized="1"
     inkscape:current-layer="svg4" />
  <path
     d="M 8.2638861,1.50017 C 8.1066123,1.50017 7.956831,1.50742 7.7995573,1.52191 7.3876529,1.5508949 6.9757507,1.6088651 6.571335,1.7103117 3.2910837,2.5146486 1.1267166,5.5725753 1.5535982,8.8189059 1.9804799,12.065237 4.8563177,14.507232 8.2414181,14.499984 9.8665661,14.492834 11.386862,13.9855 11.386862,13.9855 l -0.59913,-1.760844 c 0,0 -1.355537,0.420282 -2.5538025,0.420282 h -0.00748 C 5.7999527,12.652188 3.7629011,10.920327 3.4558443,8.5870247 3.1487888,6.2537255 4.6840664,4.0870892 7.0356638,3.5073873 8.21895,3.2175363 9.4921083,3.3624619 10.503141,3.8117317 c 1.011039,0.449268 1.707529,1.1666497 1.924722,1.9637406 0.239645,0.8623053 0.16476,1.7970761 -0.164773,2.3695303 -0.187226,0.3260817 -0.771374,0.6521655 -1.175788,0.7898435 V 8.0073229 c 0,-1.5289622 -1.2956274,-2.7825689 -2.8758406,-2.7825689 -1.5802131,0 -2.8758374,1.2536067 -2.8758374,2.7825689 0,1.5217181 1.2956243,2.7825691 2.8758374,2.7825691 0.3370118,0 0.6590461,-0.07245 0.9586126,-0.173911 v 0.07971 l 0.861255,0.08695 C 11.836217,10.963793 13.274135,10.195689 13.94067,9.0507768 14.607205,7.8986204 14.622178,6.5290752 14.277678,5.2972077 13.880757,3.8407169 12.712448,2.7537747 11.297,2.1305963 10.375828,1.717559 9.3348364,1.4929243 8.2563974,1.50017 Z m -0.052426,5.5796299 c 0.5392196,0 0.9586126,0.3985456 0.9586126,0.927523 0,0.5217318 -0.419393,0.9275232 -0.9586126,0.9275232 -0.5392194,0 -0.9586125,-0.4057914 -0.9586125,-0.9275232 0,-0.5289774 0.4193931,-0.927523 0.9586125,-0.927523 z"
     fill="#2e3434"
     id="path2"
     sodipodi:nodetypes="cccscccscscscccssssccccccccsssss"
     style="stroke-width:1.88589" />
</svg>
