<?xml version="1.0" encoding="UTF-8" standalone="no"?>
<svg
   xmlns:dc="http://purl.org/dc/elements/1.1/"
   xmlns:cc="http://creativecommons.org/ns#"
   xmlns:rdf="http://www.w3.org/1999/02/22-rdf-syntax-ns#"
   xmlns:svg="http://www.w3.org/2000/svg"
   xmlns="http://www.w3.org/2000/svg"
   xmlns:sodipodi="http://sodipodi.sourceforge.net/DTD/sodipodi-0.dtd"
   xmlns:inkscape="http://www.inkscape.org/namespaces/inkscape"
   width="16"
   height="16"
   version="1.1"
   id="svg10"
   sodipodi:docname="own-symbols-operators-symbolic.svg"
   inkscape:version="0.92.3 (2405546, 2018-03-11)">
  <metadata
     id="metadata16">
    <rdf:RDF>
      <cc:Work
         rdf:about="">
        <dc:format>image/svg+xml</dc:format>
        <dc:type
           rdf:resource="http://purl.org/dc/dcmitype/StillImage" />
        <dc:title />
      </cc:Work>
    </rdf:RDF>
  </metadata>
  <defs
     id="defs14" />
  <sodipodi:namedview
     pagecolor="#ffffff"
     bordercolor="#666666"
     borderopacity="1"
     objecttolerance="10"
     gridtolerance="10"
     guidetolerance="10"
     inkscape:pageopacity="0"
     inkscape:pageshadow="2"
     inkscape:window-width="1366"
     inkscape:window-height="704"
     id="namedview12"
     showgrid="false"
     inkscape:zoom="29.5"
     inkscape:cx="12.535583"
     inkscape:cy="8.8155026"
     inkscape:window-x="0"
     inkscape:window-y="27"
     inkscape:window-maximized="1"
     inkscape:current-layer="page1" />
  <g
     color="#000"
     font-weight="400"
     font-family="sans-serif"
     white-space="normal"
     fill="#474747"
     id="g8">
    <g
       id="page1"
       transform="matrix(1.5415394,0,0,1.5415394,-87.461195,-88.808888)">
      <g
         id="page1-3"
         transform="matrix(2.0097437,0,0,2.0097437,-171.38273,-180.05403)">
        <path
           inkscape:connector-curvature="0"
           id="use5-6"
           d="m 115.99575,118.30746 -0.0465,0.0388 v 1.1633 1.15555 h -1.14004 -1.14004 l -0.0465,0.0465 c -0.031,0.0233 -0.0465,0.0698 -0.0465,0.10082 0,0.0233 0.0155,0.0698 0.0465,0.0931 l 0.0465,0.0465 h 1.14004 1.14004 v 1.05473 1.04697 h -1.14004 -1.14004 l -0.0465,0.0543 c -0.031,0.0233 -0.0465,0.0698 -0.0465,0.0931 0,0.031 0.0155,0.0698 0.0465,0.10082 l 0.0465,0.0465 h 2.41192 2.41966 l 0.0465,-0.0465 c 0.062,-0.062 0.062,-0.1396 0,-0.19389 l -0.0465,-0.0543 h -1.13228 -1.13228 v -1.04697 -1.05472 h 1.13228 1.13228 l 0.0465,-0.0465 c 0.0233,-0.0233 0.0465,-0.0698 0.0465,-0.0931 0,-0.031 -0.0233,-0.0776 -0.0465,-0.10082 l -0.0465,-0.0465 h -1.13228 -1.13228 v -1.14779 -1.14779 l -0.0465,-0.0465 c -0.0543,-0.062 -0.12408,-0.0698 -0.19388,-0.0155 z"
           style="stroke-width:0.6487022" />
      </g>
    </g>
  </g>
</svg>
