<?xml version="1.0" encoding="UTF-8" standalone="no"?>
<svg
   xmlns:dc="http://purl.org/dc/elements/1.1/"
   xmlns:cc="http://creativecommons.org/ns#"
   xmlns:rdf="http://www.w3.org/1999/02/22-rdf-syntax-ns#"
   xmlns:svg="http://www.w3.org/2000/svg"
   xmlns="http://www.w3.org/2000/svg"
   xmlns:sodipodi="http://sodipodi.sourceforge.net/DTD/sodipodi-0.dtd"
   xmlns:inkscape="http://www.inkscape.org/namespaces/inkscape"
   width="16"
   height="16"
   version="1.1"
   id="svg10"
   sodipodi:docname="own-symbols-delimiters-symbolic.svg"
   inkscape:version="0.92.3 (2405546, 2018-03-11)">
  <metadata
     id="metadata16">
    <rdf:RDF>
      <cc:Work
         rdf:about="">
        <dc:format>image/svg+xml</dc:format>
        <dc:type
           rdf:resource="http://purl.org/dc/dcmitype/StillImage" />
        <dc:title />
      </cc:Work>
    </rdf:RDF>
  </metadata>
  <defs
     id="defs14" />
  <sodipodi:namedview
     pagecolor="#ffffff"
     bordercolor="#666666"
     borderopacity="1"
     objecttolerance="10"
     gridtolerance="10"
     guidetolerance="10"
     inkscape:pageopacity="0"
     inkscape:pageshadow="2"
     inkscape:window-width="1366"
     inkscape:window-height="704"
     id="namedview12"
     showgrid="false"
     inkscape:zoom="59"
     inkscape:cx="7.040136"
     inkscape:cy="0.7593625"
     inkscape:window-x="0"
     inkscape:window-y="27"
     inkscape:window-maximized="1"
     inkscape:current-layer="page1" />
  <g
     color="#000"
     font-weight="400"
     font-family="sans-serif"
     white-space="normal"
     fill="#474747"
     id="g8">
    <g
       id="page1"
       transform="matrix(1.3369019,0,0,1.3369019,-76.50133,-75.897637)">
      <path
         inkscape:connector-curvature="0"
         id="use5-3"
         d="m 60.316373,58.351731 c 0,-0.478206 0.310834,-1.243337 1.613947,-1.327023 0.05978,-0.01196 -0.412198,-0.03442 -0.412198,-0.106151 0,-0.131507 -0.09564,-0.131507 -0.227148,-0.131507 -1.195517,0 -2.283438,0.609713 -2.295393,1.494396 v 2.725778 c 0,0.466252 0,0.848817 -0.478206,1.243338 -0.418431,0.3467 -0.872728,0.37061 -1.135741,0.382565 -0.05978,0.01196 -0.107597,0.05978 -0.107597,0.131507 0,0.119552 0.07173,0.119552 0.191283,0.131507 0.789041,0.04782 1.362889,0.478207 1.494396,1.06401 0.03587,0.131507 0.03587,0.155417 0.03587,0.585803 v 2.367123 c 0,0.502117 0,0.884683 0.573848,1.338979 0.466252,0.358655 1.255293,0.490162 1.721545,0.490162 0.131506,0 0.227148,0 0.227148,-0.131507 0,-0.119552 0.448065,-0.144908 0.328512,-0.156863 -0.753175,-0.04782 -1.338979,-0.430386 -1.494396,-1.040099 -0.03587,-0.107597 -0.03587,-0.131507 -0.03587,-0.561893 V 64.34127 c 0,-0.549937 -0.09564,-0.753175 -0.478207,-1.13574 -0.251059,-0.251059 -0.597759,-0.370611 -0.932503,-0.466252 0.980324,-0.274969 1.41071,-0.824907 1.41071,-1.518306 z"
         sodipodi:nodetypes="scsscsccsccsscssccssccss" />
    </g>
    <g
       id="page1-6"
       transform="matrix(1.3354284,0,0,1.3354284,-66.157565,-75.802632)">
      <path
         inkscape:connector-curvature="0"
         id="use5-7"
         d="m 58.995581,67.152181 c 0,0.478206 -0.310834,1.243337 -1.613947,1.327023 -0.05978,0.01196 -0.107597,0.05978 -0.107597,0.131507 0,0.131507 0.131507,0.131507 0.239103,0.131507 1.159652,0 2.271482,-0.585803 2.283438,-1.494396 v -2.725778 c 0,-0.466252 0,-0.848817 0.478206,-1.243338 0.418431,-0.3467 0.872728,-0.37061 1.135741,-0.382565 0.05978,-0.01196 0.107597,-0.05978 0.107597,-0.131507 0,-0.119552 -0.07173,-0.119552 -0.191283,-0.131507 -0.789041,-0.04782 -1.362889,-0.478207 -1.494396,-1.06401 -0.03587,-0.131507 -0.03587,-0.155417 -0.03587,-0.585803 v -2.367123 c 0,-0.502117 0,-0.884683 -0.573848,-1.338979 -0.478207,-0.37061 -1.303114,-0.490162 -1.70959,-0.490162 -0.107596,0 -0.239103,0 -0.239103,0.131507 0,0.119551 0.07173,0.119551 0.191283,0.131507 0.753175,0.04782 1.338979,0.430386 1.494396,1.040099 0.03587,0.107597 0.03587,0.131507 0.03587,0.561893 v 2.510585 c 0,0.549938 0.09564,0.753176 0.478207,1.135741 0.251059,0.251059 0.597758,0.370611 0.932503,0.466252 -0.980324,0.274969 -1.41071,0.824907 -1.41071,1.518306 z" />
    </g>
  </g>
</svg>
