<?xml version="1.0" encoding="UTF-8" standalone="no"?>
<svg
   xmlns:dc="http://purl.org/dc/elements/1.1/"
   xmlns:cc="http://creativecommons.org/ns#"
   xmlns:rdf="http://www.w3.org/1999/02/22-rdf-syntax-ns#"
   xmlns:svg="http://www.w3.org/2000/svg"
   xmlns="http://www.w3.org/2000/svg"
   xmlns:sodipodi="http://sodipodi.sourceforge.net/DTD/sodipodi-0.dtd"
   xmlns:inkscape="http://www.inkscape.org/namespaces/inkscape"
   width="16"
   height="16"
   version="1.1"
   id="svg10"
   sodipodi:docname="own-symbols-misc-text-symbolic.svg"
   inkscape:version="0.92.3 (2405546, 2018-03-11)">
  <metadata
     id="metadata16">
    <rdf:RDF>
      <cc:Work
         rdf:about="">
        <dc:format>image/svg+xml</dc:format>
        <dc:type
           rdf:resource="http://purl.org/dc/dcmitype/StillImage" />
        <dc:title />
      </cc:Work>
    </rdf:RDF>
  </metadata>
  <defs
     id="defs14" />
  <sodipodi:namedview
     pagecolor="#ffffff"
     bordercolor="#666666"
     borderopacity="1"
     objecttolerance="10"
     gridtolerance="10"
     guidetolerance="10"
     inkscape:pageopacity="0"
     inkscape:pageshadow="2"
     inkscape:window-width="1366"
     inkscape:window-height="704"
     id="namedview12"
     showgrid="false"
     inkscape:zoom="29.5"
     inkscape:cx="11.049694"
     inkscape:cy="8.8769609"
     inkscape:window-x="0"
     inkscape:window-y="27"
     inkscape:window-maximized="1"
     inkscape:current-layer="page1" />
  <g
     color="#000"
     font-weight="400"
     font-family="sans-serif"
     white-space="normal"
     fill="#474747"
     id="g8">
    <g
       id="page1"
       transform="matrix(1.3369019,0,0,1.3369019,-76.50133,-75.897637)">
      <g
         id="page1-36"
         transform="matrix(2.4229969,0,0,2.4229969,-218.86466,-228.54291)">
        <path
           inkscape:connector-curvature="0"
           id="use5-7"
           d="m 114.1816,117.93724 c -0.11625,0.11625 -0.13414,0.0984 0.96578,1.21617 0.56338,0.57231 1.02838,1.04626 1.02838,1.04626 0,0.009 -0.45606,0.4829 -1.01943,1.05521 -1.10887,1.12675 -1.09098,1.09992 -0.97473,1.21617 0.12519,0.11626 0.0894,0.14308 1.20723,-0.98366 l 1.03732,-1.04627 1.02838,1.04627 c 1.12675,1.12674 1.09098,1.09992 1.21618,0.98366 0.11625,-0.11625 0.13413,-0.0894 -0.97473,-1.21617 -0.56337,-0.57231 -1.01944,-1.04626 -1.01944,-1.05521 0.009,-0.009 0.47395,-0.48289 1.02838,-1.0552 1.09992,-1.10887 1.08204,-1.09098 0.96579,-1.20723 -0.1252,-0.11626 -0.0894,-0.14308 -1.21618,0.99261 l -1.02838,1.04626 -1.03732,-1.04626 c -1.11781,-1.13569 -1.08204,-1.10887 -1.20723,-0.99261 z m 2.04782,-0.0179 c -0.13414,0.0447 -0.23251,0.13413 -0.31299,0.25933 -0.0537,0.0984 -0.0626,0.14308 -0.0626,0.27721 0,0.17885 0.0358,0.26828 0.16097,0.40241 0.0984,0.10731 0.27721,0.19674 0.41135,0.19674 0.13414,0 0.31298,-0.0894 0.41135,-0.19674 0.1252,-0.13413 0.16097,-0.22356 0.16097,-0.40241 0,-0.13413 -0.009,-0.17885 -0.0715,-0.27721 -0.0358,-0.0626 -0.0984,-0.13414 -0.13414,-0.16991 -0.16097,-0.11625 -0.38453,-0.15202 -0.56338,-0.0894 z m -1.79743,1.77954 c -0.0805,0.0447 -0.14308,0.0984 -0.20568,0.18779 -0.0894,0.1252 -0.0894,0.14308 -0.0894,0.32193 0,0.17885 0,0.18779 0.0894,0.31299 0.26827,0.38452 0.81376,0.33087 1.0105,-0.0894 0.10731,-0.21462 0.0536,-0.46501 -0.13414,-0.64386 -0.17885,-0.16991 -0.44712,-0.20568 -0.67068,-0.0894 z m 3.49649,-0.0268 c -0.19673,0.0715 -0.36664,0.32193 -0.36664,0.53655 0,0.21462 0.16991,0.46501 0.37559,0.53655 0.26827,0.0894 0.5276,0.009 0.68856,-0.22357 0.0894,-0.12519 0.0894,-0.13413 0.0894,-0.31298 0,-0.17885 0,-0.19673 -0.0894,-0.32193 -0.12519,-0.1699 -0.27721,-0.25039 -0.47395,-0.25039 -0.0715,0 -0.1699,0.0179 -0.22356,0.0358 z m -1.69906,1.73484 c -0.24145,0.0894 -0.37558,0.2951 -0.37558,0.55443 0,0.12519 0.009,0.16991 0.0626,0.26827 0.2325,0.39347 0.78693,0.39347 1.01049,0 0.0626,-0.0984 0.0715,-0.14308 0.0715,-0.26827 0,-0.0805 -0.0179,-0.18779 -0.0358,-0.23251 -0.0537,-0.12519 -0.20567,-0.26827 -0.33981,-0.32192 -0.15202,-0.0536 -0.25039,-0.0536 -0.39347,0 z"
           style="stroke-width:0.74799806" />
      </g>
    </g>
  </g>
</svg>
