<?xml version="1.0" encoding="UTF-8" standalone="no"?>
<svg
   xmlns:osb="http://www.openswatchbook.org/uri/2009/osb"
   xmlns:dc="http://purl.org/dc/elements/1.1/"
   xmlns:cc="http://creativecommons.org/ns#"
   xmlns:rdf="http://www.w3.org/1999/02/22-rdf-syntax-ns#"
   xmlns:svg="http://www.w3.org/2000/svg"
   xmlns="http://www.w3.org/2000/svg"
   xmlns:sodipodi="http://sodipodi.sourceforge.net/DTD/sodipodi-0.dtd"
   xmlns:inkscape="http://www.inkscape.org/namespaces/inkscape"
   width="16.000002"
   viewBox="0 0 16.000002 16"
   version="1.1"
   id="svg7384"
   height="16"
   sodipodi:docname="part-symbolic.svg"
   inkscape:version="1.0.2 (e86c870879, 2021-01-15)">
  <sodipodi:namedview
     pagecolor="#ffffff"
     bordercolor="#666666"
     borderopacity="1"
     objecttolerance="10"
     gridtolerance="10"
     guidetolerance="10"
     inkscape:pageopacity="0"
     inkscape:pageshadow="2"
     inkscape:window-width="1366"
     inkscape:window-height="704"
     id="namedview14"
     showgrid="false"
     inkscape:zoom="35.438411"
     inkscape:cx="10.611508"
     inkscape:cy="8.6559573"
     inkscape:window-x="0"
     inkscape:window-y="0"
     inkscape:window-maximized="1"
     inkscape:current-layer="layer11"
     inkscape:document-rotation="0" />
  <metadata
     id="metadata90">
    <rdf:RDF>
      <cc:Work
         rdf:about="">
        <dc:format>image/svg+xml</dc:format>
        <dc:type
           rdf:resource="http://purl.org/dc/dcmitype/StillImage" />
        <dc:title>Gnome Symbolic Icon Theme</dc:title>
      </cc:Work>
    </rdf:RDF>
  </metadata>
  <title
     id="title9167">Gnome Symbolic Icon Theme</title>
  <defs
     id="defs7386">
    <inkscape:path-effect
       effect="fillet_chamfer"
       id="path-effect903"
       is_visible="true"
       lpeversion="1"
       satellites_param="F,0,0,1,0,2,0,1 @ F,0,0,1,0,2,0,1 @ F,0,0,1,0,2,0,1 @ F,0,0,1,0,2,0,1"
       unit="px"
       method="auto"
       mode="F"
       radius="2"
       chamfer_steps="1"
       flexible="false"
       use_knot_distance="true"
       apply_no_radius="true"
       apply_with_radius="true"
       only_selected="false"
       hide_knots="false" />
    <linearGradient
       osb:paint="solid"
       id="linearGradient7212">
      <stop
         style="stop-color:#000000;stop-opacity:1;"
         offset="0"
         id="stop7214" />
    </linearGradient>
    <filter
       inkscape:collect="always"
       style="color-interpolation-filters:sRGB"
       id="filter897"
       x="-2.5238651e-07"
       width="1.0000005"
       y="-1.6296088e-07"
       height="1.0000003">
      <feGaussianBlur
         inkscape:collect="always"
         stdDeviation="8.7089162e-07"
         id="feGaussianBlur899" />
    </filter>
  </defs>
  <g
     transform="translate(-301.0002,-177)"
     style="display:inline"
     id="layer9" />
  <g
     transform="translate(-59.999998,-544)"
     id="layer1" />
  <g
     transform="translate(-59.999998,-544)"
     style="display:inline"
     id="layer10" />
  <g
     transform="translate(-59.999998,-544)"
     id="g6387" />
  <g
     transform="translate(-59.999998,-544)"
     id="layer11">
    <path
       id="path74842-3"
       style="vector-effect:none;fill:#2e3436;fill-opacity:1;stroke:none;stroke-width:1.085;stroke-linecap:butt;stroke-linejoin:miter;stroke-miterlimit:4;stroke-dasharray:none;stroke-dashoffset:0;stroke-opacity:1;marker:none"
       d="M 2.9804688 2 A 2 2 0 0 0 0.98046875 4 L 0.98046875 13.019531 A 2 2 0 0 0 2.9804688 15.019531 L 4.0253906 15.019531 L 4.0253906 2 L 2.9804688 2 z M 9.1464844 2 C 10.071055 2.1325259 10.811056 2.4370073 11.355469 2.921875 C 12.110504 3.5832624 12.488281 4.5541336 12.488281 5.8359375 C 12.488281 7.1294473 12.110504 8.1061908 11.355469 8.7675781 C 10.606287 9.4289655 9.4983963 9.7597656 8.0292969 9.7597656 L 5.7988281 9.7597656 L 5.7988281 15.019531 L 12 15.019531 A 2 2 0 0 0 14 13.019531 L 14 4 A 2 2 0 0 0 12 2 L 9.1464844 2 z M 5.7988281 3.3769531 L 5.7988281 8.3027344 L 8.0292969 8.3027344 C 8.8545678 8.3027344 9.4926795 8.0893773 9.9433594 7.6621094 C 10.394039 7.2348414 10.619141 6.6260906 10.619141 5.8359375 C 10.619141 5.0516374 10.394039 4.4467992 9.9433594 4.0195312 C 9.4926795 3.5922633 8.8545678 3.3769531 8.0292969 3.3769531 L 5.7988281 3.3769531 z "
       transform="translate(59.999998,544)" />
  </g>
</svg>
