<?xml version="1.0" encoding="UTF-8" standalone="no"?>
<svg
   xmlns:osb="http://www.openswatchbook.org/uri/2009/osb"
   xmlns:dc="http://purl.org/dc/elements/1.1/"
   xmlns:cc="http://creativecommons.org/ns#"
   xmlns:rdf="http://www.w3.org/1999/02/22-rdf-syntax-ns#"
   xmlns:svg="http://www.w3.org/2000/svg"
   xmlns="http://www.w3.org/2000/svg"
   xmlns:sodipodi="http://sodipodi.sourceforge.net/DTD/sodipodi-0.dtd"
   xmlns:inkscape="http://www.inkscape.org/namespaces/inkscape"
   width="16.000002"
   viewBox="0 0 16.000002 16"
   version="1.1"
   id="svg7384"
   height="16"
   sodipodi:docname="section-symbolic.svg"
   inkscape:version="1.0.2 (e86c870879, 2021-01-15)">
  <sodipodi:namedview
     pagecolor="#ffffff"
     bordercolor="#666666"
     borderopacity="1"
     objecttolerance="10"
     gridtolerance="10"
     guidetolerance="10"
     inkscape:pageopacity="0"
     inkscape:pageshadow="2"
     inkscape:window-width="1366"
     inkscape:window-height="704"
     id="namedview14"
     showgrid="false"
     inkscape:zoom="35.438411"
     inkscape:cx="10.611508"
     inkscape:cy="10.240413"
     inkscape:window-x="0"
     inkscape:window-y="0"
     inkscape:window-maximized="1"
     inkscape:current-layer="layer11"
     inkscape:document-rotation="0" />
  <metadata
     id="metadata90">
    <rdf:RDF>
      <cc:Work
         rdf:about="">
        <dc:format>image/svg+xml</dc:format>
        <dc:type
           rdf:resource="http://purl.org/dc/dcmitype/StillImage" />
        <dc:title>Gnome Symbolic Icon Theme</dc:title>
      </cc:Work>
    </rdf:RDF>
  </metadata>
  <title
     id="title9167">Gnome Symbolic Icon Theme</title>
  <defs
     id="defs7386">
    <inkscape:path-effect
       effect="fillet_chamfer"
       id="path-effect903"
       is_visible="true"
       lpeversion="1"
       satellites_param="F,0,0,1,0,2,0,1 @ F,0,0,1,0,2,0,1 @ F,0,0,1,0,2,0,1 @ F,0,0,1,0,2,0,1"
       unit="px"
       method="auto"
       mode="F"
       radius="2"
       chamfer_steps="1"
       flexible="false"
       use_knot_distance="true"
       apply_no_radius="true"
       apply_with_radius="true"
       only_selected="false"
       hide_knots="false" />
    <linearGradient
       osb:paint="solid"
       id="linearGradient7212">
      <stop
         style="stop-color:#000000;stop-opacity:1;"
         offset="0"
         id="stop7214" />
    </linearGradient>
  </defs>
  <g
     transform="translate(-301.0002,-177)"
     style="display:inline"
     id="layer9" />
  <g
     transform="translate(-59.999998,-544)"
     id="layer1" />
  <g
     transform="translate(-59.999998,-544)"
     style="display:inline"
     id="layer10" />
  <g
     transform="translate(-59.999998,-544)"
     id="g6387" />
  <g
     transform="translate(-59.999998,-544)"
     id="layer11">
    <path
       id="path74842-3"
       style="vector-effect:none;fill:#2e3436;fill-opacity:1;stroke:none;stroke-width:1.085;stroke-linecap:butt;stroke-linejoin:miter;stroke-miterlimit:4;stroke-dasharray:none;stroke-dashoffset:0;stroke-opacity:1;marker:none"
       d="M 2.9804688 2 A 2 2 0 0 0 0.98046875 4 L 0.98046875 13.019531 A 2 2 0 0 0 2.9804688 15.019531 L 4.8339844 15.019531 C 4.2793426 14.886637 3.7139311 14.725297 3.1269531 14.509766 L 3.1269531 12.683594 C 3.8468704 13.08745 4.5515352 13.392802 5.2421875 13.597656 C 5.9328398 13.802511 6.6120565 13.904297 7.2792969 13.904297 C 8.2918634 13.904297 9.0728662 13.704644 9.6230469 13.306641 C 10.173228 12.908638 10.449219 12.340992 10.449219 11.603516 C 10.449219 10.959687 10.249566 10.456635 9.8515625 10.09375 C 9.4594125 9.7308649 8.8134692 9.4587863 7.9121094 9.2773438 L 6.8320312 9.0664062 C 5.5092565 8.8030219 4.552089 8.3900116 3.9609375 7.828125 C 3.369786 7.2662384 3.0742187 6.4852355 3.0742188 5.484375 C 3.0742188 4.3254838 3.4813569 3.4133341 4.2949219 2.7460938 C 4.700595 2.4157599 5.1819793 2.1667939 5.7382812 2 L 2.9804688 2 z M 9.9648438 2 C 10.472033 2.1061764 10.986389 2.2369994 11.511719 2.4121094 L 11.511719 4.140625 C 10.838625 3.8187108 10.202473 3.5799056 9.6054688 3.421875 C 9.0084642 3.2638444 8.4329868 3.1835938 7.8769531 3.1835938 C 6.9112105 3.1835938 6.1654406 3.3715027 5.6386719 3.7460938 C 5.1177562 4.1206848 4.8574219 4.6530977 4.8574219 5.34375 C 4.8574219 5.9231956 5.0296738 6.361654 5.375 6.6601562 C 5.7261791 6.9528055 6.3877794 7.1896512 7.359375 7.3710938 L 8.4296875 7.5917969 C 9.7524622 7.8434753 10.727246 8.2878058 11.353516 8.9257812 C 11.985638 9.5579037 12.300781 10.407413 12.300781 11.472656 C 12.300781 12.742754 11.874067 13.705794 11.019531 14.361328 C 10.649094 14.647459 10.188108 14.858292 9.6660156 15.019531 L 12 15.019531 A 2 2 0 0 0 14 13.019531 L 14 4 A 2 2 0 0 0 12 2 L 9.9648438 2 z "
       transform="translate(59.999998,544)" />
  </g>
</svg>
