<?xml version="1.0" encoding="UTF-8" standalone="no"?>
<svg
   xmlns:dc="http://purl.org/dc/elements/1.1/"
   xmlns:cc="http://creativecommons.org/ns#"
   xmlns:rdf="http://www.w3.org/1999/02/22-rdf-syntax-ns#"
   xmlns:svg="http://www.w3.org/2000/svg"
   xmlns="http://www.w3.org/2000/svg"
   xmlns:sodipodi="http://sodipodi.sourceforge.net/DTD/sodipodi-0.dtd"
   xmlns:inkscape="http://www.inkscape.org/namespaces/inkscape"
   width="16"
   height="16"
   version="1.1"
   id="svg10"
   sodipodi:docname="menu-math-font-styles-1-symbolic.svg"
   inkscape:version="0.92.4 (5da689c313, 2019-01-14)">
  <metadata
     id="metadata16">
    <rdf:RDF>
      <cc:Work
         rdf:about="">
        <dc:format>image/svg+xml</dc:format>
        <dc:type
           rdf:resource="http://purl.org/dc/dcmitype/StillImage" />
        <dc:title />
      </cc:Work>
    </rdf:RDF>
  </metadata>
  <defs
     id="defs14" />
  <sodipodi:namedview
     pagecolor="#ffffff"
     bordercolor="#666666"
     borderopacity="1"
     objecttolerance="10"
     gridtolerance="10"
     guidetolerance="10"
     inkscape:pageopacity="0"
     inkscape:pageshadow="2"
     inkscape:window-width="840"
     inkscape:window-height="704"
     id="namedview12"
     showgrid="false"
     inkscape:zoom="25.897786"
     inkscape:cx="11.306708"
     inkscape:cy="8.7065028"
     inkscape:window-x="526"
     inkscape:window-y="27"
     inkscape:window-maximized="0"
     inkscape:current-layer="use18" />
  <g
     color="#000"
     font-weight="400"
     font-family="sans-serif"
     white-space="normal"
     fill="#474747"
     id="g8">
    <g
       id="page1"
       transform="matrix(1.8864635,0,0,1.8864635,-106.46308,-108.03828)">
      <g
         id="use18"
         style="fill:#000000;fill-opacity:1"
         transform="matrix(0.54171543,0,0,0.54171543,56.727459,64.328965)">
        <g
           transform="matrix(1.3047254,0,0,1.3047254,-167.15188,-200.30226)"
           style="fill:#000000;fill-opacity:1"
           id="g261">
          <g
             id="use259"
             transform="matrix(0.97854407,0,0,0.97854407,128.24763,153.61475)">
            <path
               inkscape:connector-curvature="0"
               id="path506"
               d="m 6.5625,-9.703125 c -0.09375,-0.265625 -0.125,-0.34375 -0.46875,-0.34375 -0.359375,0 -0.390625,0.078125 -0.484375,0.34375 l -3.5625,8.734375 c -0.09375,0.234375 -0.09375,0.265625 -0.5,0.3125 C 1.1875,-0.609375 1.140625,-0.609375 0.8125,-0.609375 h -0.25 V 0 c 0.375,-0.03125 1.234375,-0.03125 1.640625,-0.03125 0.390625,0 1.4375,0 1.765625,0.03125 v -0.609375 c -0.3125,0 -0.859375,0 -1.25,-0.171875 C 2.75,-0.90625 2.75,-0.9375 2.78125,-0.984375 l 0.765625,-1.875 h 3.84375 l 0.90625,2.25 H 6.9375 V 0 c 0.46875,-0.03125 1.859375,-0.03125 2.40625,-0.03125 0.453125,0 1.921875,0 2.28125,0.03125 V -0.609375 H 10.25 Z M 5.46875,-7.609375 7.125,-3.46875 H 3.78125 Z m 0,0"
               style="stroke:none" />
          </g>
        </g>
      </g>
    </g>
  </g>
</svg>
