<?xml version="1.0" encoding="UTF-8" standalone="no"?>
<svg
   xmlns:dc="http://purl.org/dc/elements/1.1/"
   xmlns:cc="http://creativecommons.org/ns#"
   xmlns:rdf="http://www.w3.org/1999/02/22-rdf-syntax-ns#"
   xmlns:svg="http://www.w3.org/2000/svg"
   xmlns="http://www.w3.org/2000/svg"
   xmlns:sodipodi="http://sodipodi.sourceforge.net/DTD/sodipodi-0.dtd"
   xmlns:inkscape="http://www.inkscape.org/namespaces/inkscape"
   width="16"
   height="16"
   version="1.1"
   id="svg10"
   sodipodi:docname="menu-math-font-styles-7-symbolic.svg"
   inkscape:version="0.92.4 (5da689c313, 2019-01-14)">
  <metadata
     id="metadata16">
    <rdf:RDF>
      <cc:Work
         rdf:about="">
        <dc:format>image/svg+xml</dc:format>
        <dc:type
           rdf:resource="http://purl.org/dc/dcmitype/StillImage" />
        <dc:title></dc:title>
      </cc:Work>
    </rdf:RDF>
  </metadata>
  <defs
     id="defs14" />
  <sodipodi:namedview
     pagecolor="#ffffff"
     bordercolor="#666666"
     borderopacity="1"
     objecttolerance="10"
     gridtolerance="10"
     guidetolerance="10"
     inkscape:pageopacity="0"
     inkscape:pageshadow="2"
     inkscape:window-width="840"
     inkscape:window-height="704"
     id="namedview12"
     showgrid="false"
     inkscape:zoom="25.897786"
     inkscape:cx="11.306708"
     inkscape:cy="9.0154095"
     inkscape:window-x="526"
     inkscape:window-y="27"
     inkscape:window-maximized="0"
     inkscape:current-layer="use18" />
  <g
     color="#000"
     font-weight="400"
     font-family="sans-serif"
     white-space="normal"
     fill="#474747"
     id="g8">
    <g
       id="page1"
       transform="matrix(1.8864635,0,0,1.8864635,-106.46308,-108.03828)">
      <g
         id="use18"
         style="fill:#000000;fill-opacity:1"
         transform="matrix(0.54171543,0,0,0.54171543,56.727459,64.328965)">
        <g
           transform="matrix(1.3047254,0,0,1.3047254,-337.99301,-200.2152)"
           style="fill:#000000;fill-opacity:1"
           id="g285">
          <g
             id="use283"
             transform="matrix(0.97854407,0,0,0.97854407,259.74761,153.61475)">
            <path
               inkscape:connector-curvature="0"
               id="path706"
               d="M 5.125,-9.515625 C 5.015625,-9.75 5,-9.828125 4.84375,-9.828125 c -0.15625,0 -0.21875,0.125 -0.296875,0.296875 L 1.375,-1.1875 c -0.171875,0.453125 -0.46875,0.65625 -0.84375,0.703125 -0.078125,0 -0.296875,0.03125 -0.296875,0.234375 C 0.234375,0 0.453125,0 0.71875,0 H 2.9375 c 0.25,0 0.46875,0 0.46875,-0.25 0,-0.203125 -0.203125,-0.21875 -0.296875,-0.234375 C 2.921875,-0.5 2.5625,-0.5625 2.5625,-1.390625 c 0,-0.46875 0.109375,-0.90625 0.203125,-1.359375 h 3.0625 c 0.5,1.375 0.5,1.59375 0.515625,1.890625 C 6.015625,-0.53125 5.625,-0.5 5.46875,-0.484375 5.328125,-0.46875 5.234375,-0.375 5.234375,-0.25 5.234375,0 5.4375,0 5.6875,0 H 9.328125 C 9.578125,0 9.8125,0 9.8125,-0.25 9.8125,-0.453125 9.625,-0.46875 9.5,-0.484375 9.1875,-0.546875 8.953125,-0.78125 8.671875,-1.40625 Z m -2.21875,6.28125 c 0.3125,-1.234375 0.765625,-2.421875 1.21875,-3.59375 0.4375,0.9375 1.28125,2.953125 1.515625,3.59375 z m -0.828125,1.5625 0.015625,0.015625 v 0.140625 c -0.015625,0.015625 -0.015625,0.03125 -0.015625,0.125 0,0.046875 0,0.578125 0.203125,0.90625 H 1.515625 c 0.1875,-0.203125 0.25,-0.359375 0.328125,-0.59375 z m 2.265625,-5.90625 0.5,-1.359375 3.390625,7.71875 c 0.046875,0.140625 0.203125,0.484375 0.40625,0.734375 H 6.65625 c 0.140625,-0.09375 0.1875,-0.28125 0.1875,-0.453125 0,-0.84375 -1.21875,-3.6875 -1.828125,-5.078125 z m 0,0"
               style="stroke:none" />
          </g>
        </g>
      </g>
    </g>
  </g>
</svg>
